<svg id="Calque_4" data-name="Calque 4" xmlns="http://www.w3.org/2000/svg" viewBox="0 0 43.73 49.84"><defs><style>.cls-1{fill:#e51038;}.cls-1,.cls-2{stroke:#000;stroke-linejoin:round;stroke-width:0.7px;}.cls-1,.cls-2,.cls-4{stroke-linecap:round;}.cls-2,.cls-4{fill:none;}.cls-3{fill:#ee718f;}.cls-4{stroke:#fff;stroke-miterlimit:10;}</style></defs><title>Boxe</title><path class="cls-1" d="M9.56,42.37H6.68s-9.37-8.89,1-13.94,14.18,4.69,14.18,4.69,8.77,7.93-2,16C15.93,51.39,9.08,44.66,9.56,42.37Z" transform="translate(-2.43 -0.08)"/><path class="cls-1" d="M25.06,42.13S9.56,38,3.79,19.3C3,10.89,12.44,5,15.69,6.93c0,0,4.45-6.73,11.3-6.49S44.53,8.73,45.73,19.54,34.55,40.45,25.06,42.13Z" transform="translate(-2.43 -0.08)"/><path class="cls-2" d="M9.87,16.61s1.6,10.78,12.47,5.61c7.57-8.11-6.66-15.3-6.66-15.3" transform="translate(-2.43 -0.08)"/><path class="cls-2" d="M41.14,24.42s-8.81,8.78-18.8-2.2" transform="translate(-2.43 -0.08)"/><path class="cls-2" d="M39.31,30.44s-2.06.7-4-3" transform="translate(-2.43 -0.08)"/><path class="cls-3" d="M25,5.94s-4.55,1.4-4.73.44S21.12,2.26,25,1.83,41.34,8.39,42.21,14.69s-2,4.55-4.11,3S27.95,6.38,25,5.94Z" transform="translate(-2.43 -0.08)"/><path class="cls-3" d="M11.23,12.94s-5.16,1.14-3.06-1.75,5.6-3.68,8-2.45,8.83,7.7,6.21,9.45-5.76-.44-8.31-5C14,13.19,11.29,17.14,11.23,12.94Z" transform="translate(-2.43 -0.08)"/><path class="cls-4" d="M23.4,3.2s1.49-1.57,4.72.44" transform="translate(-2.43 -0.08)"/><path class="cls-4" d="M11.6,9.64s3.1-1.49,4.85.59" transform="translate(-2.43 -0.08)"/></svg>