<svg id="Calque_1" data-name="Calque 1" xmlns="http://www.w3.org/2000/svg" viewBox="0 0 49.95 30.38"><defs><style>.cls-1{fill:#ffbe23;stroke:#000;stroke-miterlimit:10;}.cls-1,.cls-6,.cls-7{stroke-width:0.5px;}.cls-2{fill:#fff;}.cls-3{fill:#d61da2;}.cls-4{fill:#050505;}.cls-5{fill:#00d1cb;}.cls-6,.cls-7{fill:none;stroke-linecap:round;stroke-linejoin:round;}.cls-6{stroke:#fff;}.cls-7{stroke:#fcfcfc;}</style></defs><title>célèbre</title><path class="cls-1" d="M49.75,37.27A2.8,2.8,0,0,1,46.84,40H3.2A2.8,2.8,0,0,1,.3,37.27V12.76A2.8,2.8,0,0,1,3.2,10.08H46.84a2.8,2.8,0,0,1,2.91,2.68Z" transform="translate(-0.05 -9.83)"/><rect class="cls-2" x="3.5" y="5.72" width="42.69" height="18.61"/><path class="cls-3" d="M13.89,19.82l2.72,7.53,2.73-7.59q.21-.6.32-.83a1.12,1.12,0,0,1,.35-.42,1.09,1.09,0,0,1,.67-.19,1.19,1.19,0,0,1,.58.15,1.12,1.12,0,0,1,.42.39.91.91,0,0,1,.15.49,1.5,1.5,0,0,1,0,.36,3.15,3.15,0,0,1-.12.38l-.15.39L18.6,27.83q-.16.42-.31.8a3.32,3.32,0,0,1-.36.67,1.58,1.58,0,0,1-.55.47,1.73,1.73,0,0,1-.83.18,1.76,1.76,0,0,1-.83-.18,1.55,1.55,0,0,1-.55-.48,3.43,3.43,0,0,1-.37-.67q-.16-.38-.31-.8l-2.86-7.28-.15-.39a2.85,2.85,0,0,1-.13-.41,1.66,1.66,0,0,1-.05-.38,1,1,0,0,1,.34-.71,1.17,1.17,0,0,1,.85-.32,1,1,0,0,1,.88.36A4.6,4.6,0,0,1,13.89,19.82Z" transform="translate(-0.05 -9.83)"/><path class="cls-4" d="M16.55,30.13a2,2,0,0,1-.93-.2,1.75,1.75,0,0,1-.62-.53,3.62,3.62,0,0,1-.38-.71c-.11-.25-.21-.52-.31-.8l-2.86-7.28-.15-.39a3.05,3.05,0,0,1-.14-.44,1.83,1.83,0,0,1-.06-.42,1.14,1.14,0,0,1,.39-.84,1.37,1.37,0,0,1,1-.38,1.21,1.21,0,0,1,1,.44,4.71,4.71,0,0,1,.55,1.18l2.54,7,2.55-7.07c.14-.4.25-.68.33-.84a1.31,1.31,0,0,1,.41-.49,1.29,1.29,0,0,1,.8-.23,1.4,1.4,0,0,1,.68.17,1.31,1.31,0,0,1,.49.45,1.08,1.08,0,0,1,.18.58,1.67,1.67,0,0,1-.05.41,3.32,3.32,0,0,1-.13.4l-.15.38-2.91,7.35c-.1.27-.21.54-.31.8a3.51,3.51,0,0,1-.38.7,1.77,1.77,0,0,1-.61.53A1.94,1.94,0,0,1,16.55,30.13ZM12.47,18.51a1,1,0,0,0-.71.27.79.79,0,0,0-.28.59,1.5,1.5,0,0,0,0,.34,2.7,2.7,0,0,0,.12.39l.15.4,2.86,7.28c.1.28.21.55.31.79a3.26,3.26,0,0,0,.35.64,1.37,1.37,0,0,0,.48.42,1.57,1.57,0,0,0,.74.16,1.54,1.54,0,0,0,.73-.16,1.4,1.4,0,0,0,.48-.41,3.16,3.16,0,0,0,.34-.63c.11-.26.21-.52.31-.79l2.91-7.35.15-.39a3,3,0,0,0,.12-.36,1.33,1.33,0,0,0,0-.32.73.73,0,0,0-.12-.39.92.92,0,0,0-.35-.32,1,1,0,0,0-.48-.12.9.9,0,0,0-.55.15,1,1,0,0,0-.3.35c-.07.15-.18.43-.31.82L16.8,27.42a.2.2,0,0,1-.19.12h0a.19.19,0,0,1-.19-.12L13.7,19.88h0a4.46,4.46,0,0,0-.51-1.09A.83.83,0,0,0,12.47,18.51Z" transform="translate(-0.05 -9.83)"/><path class="cls-3" d="M23.77,28.56V19.71a1.43,1.43,0,0,1,.34-1,1.16,1.16,0,0,1,.87-.34,1.2,1.2,0,0,1,.89.34,1.41,1.41,0,0,1,.34,1v8.85a1.43,1.43,0,0,1-.34,1,1.2,1.2,0,0,1-.89.34,1.16,1.16,0,0,1-.87-.35A1.43,1.43,0,0,1,23.77,28.56Z" transform="translate(-0.05 -9.83)"/><path class="cls-4" d="M25,30.13a1.36,1.36,0,0,1-1-.41,1.6,1.6,0,0,1-.39-1.16V19.71A1.6,1.6,0,0,1,24,18.55a1.36,1.36,0,0,1,1-.4,1.4,1.4,0,0,1,1,.4,1.59,1.59,0,0,1,.39,1.16v8.85A1.6,1.6,0,0,1,26,29.73,1.4,1.4,0,0,1,25,30.13Zm0-11.62a1,1,0,0,0-.73.29,1.27,1.27,0,0,0-.29.91v8.85a1.27,1.27,0,0,0,.29.92,1,1,0,0,0,.72.29,1,1,0,0,0,.75-.29,1.27,1.27,0,0,0,.29-.92V19.71a1.26,1.26,0,0,0-.29-.91A1,1,0,0,0,25,18.51Z" transform="translate(-0.05 -9.83)"/><path class="cls-3" d="M33.6,25.38H31.36v3.18a1.42,1.42,0,0,1-.34,1,1.27,1.27,0,0,1-1.76,0,1.42,1.42,0,0,1-.34-1V19.91a1.36,1.36,0,0,1,.37-1.07,1.76,1.76,0,0,1,1.17-.32H33.6a8.75,8.75,0,0,1,2.13.2,3.25,3.25,0,0,1,1.28.64,2.88,2.88,0,0,1,.82,1.09,3.61,3.61,0,0,1,.28,1.45A3.1,3.1,0,0,1,37,24.49,5.41,5.41,0,0,1,33.6,25.38ZM33,20.23H31.36v3.43H33a5.22,5.22,0,0,0,1.44-.17,1.69,1.69,0,0,0,.88-.55,1.57,1.57,0,0,0,.3-1,1.64,1.64,0,0,0-.47-1.21A3.28,3.28,0,0,0,33,20.23Z" transform="translate(-0.05 -9.83)"/><path class="cls-4" d="M30.15,30.13a1.37,1.37,0,0,1-1-.41,1.59,1.59,0,0,1-.39-1.15V19.91a1.53,1.53,0,0,1,.43-1.21,2,2,0,0,1,1.31-.37H33.6a9,9,0,0,1,2.19.21,3.46,3.46,0,0,1,1.35.68A3.08,3.08,0,0,1,38,20.38a3.8,3.8,0,0,1,.29,1.52,3.29,3.29,0,0,1-1.2,2.74,5.63,5.63,0,0,1-3.5.93h-2v3a1.6,1.6,0,0,1-.4,1.16A1.36,1.36,0,0,1,30.15,30.13Zm.32-11.43a1.59,1.59,0,0,0-1,.27,1.21,1.21,0,0,0-.31.94v8.66a1.26,1.26,0,0,0,.29.9,1,1,0,0,0,.74.29,1,1,0,0,0,.73-.29,1.26,1.26,0,0,0,.29-.91V25.38a.19.19,0,0,1,.2-.18H33.6a5.25,5.25,0,0,0,3.25-.84,3,3,0,0,0,1.06-2.46,3.46,3.46,0,0,0-.26-1.38,2.71,2.71,0,0,0-.77-1,3.07,3.07,0,0,0-1.2-.6,8.6,8.6,0,0,0-2.08-.19ZM33,23.85H31.36a.19.19,0,0,1-.2-.18V20.23a.19.19,0,0,1,.2-.18H33a3.41,3.41,0,0,1,2.3.55,1.82,1.82,0,0,1,.52,1.34,1.74,1.74,0,0,1-.34,1.11,1.88,1.88,0,0,1-1,.62A5.45,5.45,0,0,1,33,23.85Zm-1.45-.37H33a5,5,0,0,0,1.38-.16,1.5,1.5,0,0,0,.78-.49,1.41,1.41,0,0,0,.27-.9A1.46,1.46,0,0,0,35,20.85a3.15,3.15,0,0,0-2-.44H31.56Z" transform="translate(-0.05 -9.83)"/><polygon class="cls-5" points="13.01 24.75 13.6 26.44 15.5 26.44 13.96 27.49 14.55 29.18 13.01 28.13 11.47 29.18 12.06 27.49 10.52 26.44 12.42 26.44 13.01 24.75"/><polygon class="cls-5" points="19.03 24.75 19.62 26.44 21.52 26.44 19.98 27.49 20.57 29.18 19.03 28.13 17.49 29.18 18.08 27.49 16.54 26.44 18.44 26.44 19.03 24.75"/><polygon class="cls-5" points="25.05 24.75 25.64 26.44 27.54 26.44 26 27.49 26.59 29.18 25.05 28.13 23.51 29.18 24.1 27.49 22.56 26.44 24.46 26.44 25.05 24.75"/><polygon class="cls-5" points="31.47 24.75 32.06 26.44 33.96 26.44 32.42 27.49 33.01 29.18 31.47 28.13 29.93 29.18 30.52 27.49 28.98 26.44 30.88 26.44 31.47 24.75"/><polygon class="cls-5" points="37.87 24.75 38.46 26.44 40.36 26.44 38.82 27.49 39.41 29.18 37.87 28.13 36.33 29.18 36.92 27.49 35.38 26.44 37.28 26.44 37.87 24.75"/><path class="cls-2" d="M3.76,12.76V14H46V12.76a2.91,2.91,0,0,0,0-.49H3.8A2.91,2.91,0,0,0,3.76,12.76Z" transform="translate(-0.05 -9.83)"/><path class="cls-6" d="M46.3,10.9s2.43-.13,2.32,1.82" transform="translate(-0.05 -9.83)"/><line class="cls-6" x1="48.58" y1="3.49" x2="48.58" y2="4.54"/><path class="cls-7" d="M1.33,33.8v3.15s0,2,2.53,2.06" transform="translate(-0.05 -9.83)"/><line class="cls-7" x1="4.9" y1="29.18" x2="5.85" y2="29.18"/><line class="cls-7" x1="6.79" y1="29.18" x2="6.95" y2="29.18"/></svg>