<?xml version="1.0" encoding="utf-8"?>
<!-- Generator: Adobe Illustrator 20.1.0, SVG Export Plug-In . SVG Version: 6.00 Build 0)  -->
<svg version="1.1" id="Calque_1" xmlns="http://www.w3.org/2000/svg" xmlns:xlink="http://www.w3.org/1999/xlink" x="0px" y="0px"
	 viewBox="0 0 500 500" style="enable-background:new 0 0 500 500;" xml:space="preserve">
<style type="text/css">
	.st0{display:none;}
	.st1{fill:#4AE0D0;stroke:#010202;stroke-width:11;stroke-miterlimit:10;}
	.st2{fill:#0FC2CE;}
	.st3{fill:#FFFFFF;}
	.st4{fill:none;stroke:#010202;stroke-width:11;stroke-miterlimit:10;}
	.st5{fill:#0FC2CE;stroke:#010202;stroke-width:11;stroke-miterlimit:10;}
	.st6{fill:#4AE0D0;stroke:#0FC2CE;stroke-width:14;stroke-miterlimit:10;}
	.st7{fill:#ED55AC;}
	.st8{fill:#ED55AC;stroke:#F093CD;stroke-width:14;stroke-miterlimit:10;}
	.st9{fill:#FAFAFA;}
</style>
<g id="Calque_1_1_" class="st0">
</g>
<g id="Calque_2">
	<path class="st1" d="M134.8,116.5h330.8c0,0,26.4-2.1,27.4,21.1c2,29.7,0,70.8,0,70.8s-6.3,16.3-23.5,15.4
		c-17.1-0.9-146.8-0.6-202.2,81.7"/>
	<path class="st2" d="M341.2,158.6H167c-7.4,0-13.4-6-13.4-13.4V131c0-7.4,6-13.4,13.4-13.4h174.3c7.4,0,13.4,6,13.4,13.4v14.2
		C354.6,152.6,348.6,158.6,341.2,158.6z"/>
	<g>
		<g>
			<path class="st3" d="M212,158c31.2,0,62.2,0,93.4,0c4.5,0,8.9,0,13.5,0c7.1,0,7.1-11.2,0-11.2c-31.2,0-62.2,0-93.4,0
				c-4.5,0-8.9,0-13.5,0C204.8,146.8,204.8,158,212,158L212,158z"/>
		</g>
	</g>
	<path class="st4" d="M132.6,118.7h330.8c0,0,26.4-2.1,27.4,21.1c2,29.7,0,70.8,0,70.8s-6.3,16.3-23.5,15.4
		c-17.1-0.9-146.8-0.6-202.2,81.7"/>
	<circle class="st5" cx="143.3" cy="251" r="136.3"/>
	<circle class="st6" cx="143.3" cy="251" r="122.6"/>
	<circle class="st7" cx="143.3" cy="251" r="68.7"/>
	<circle class="st8" cx="143.3" cy="251" r="68.7"/>
	<g>
		<g>
			<path class="st9" d="M96.9,233.9c-5.3,10.3-6.7,22.8-4,34.1c3.1,13.2,12.1,22.5,24.7,27.1c7.6,2.8,10.8-9.3,3.4-12.1
				c-16.9-6.4-20.9-27.7-13.2-42.7C111.4,233,100.6,226.6,96.9,233.9L96.9,233.9z"/>
		</g>
	</g>
	<circle class="st3" cx="179" cy="237" r="7.3"/>
</g>
</svg>
