<?xml version="1.0" encoding="utf-8"?>
<!-- Generator: Adobe Illustrator 20.1.0, SVG Export Plug-In . SVG Version: 6.00 Build 0)  -->
<svg version="1.1" xmlns="http://www.w3.org/2000/svg" xmlns:xlink="http://www.w3.org/1999/xlink" x="0px" y="0px"
	 viewBox="0 0 50 50" style="enable-background:new 0 0 50 50;" xml:space="preserve">
<style type="text/css">
	.st0{fill:#824D27;stroke:#010202;stroke-width:0.7;stroke-miterlimit:10;}
	.st1{fill:#B08046;stroke:#010202;stroke-width:0.7;stroke-miterlimit:10;}
	.st2{fill:#F2B13A;stroke:#010202;stroke-width:0.7;stroke-miterlimit:10;}
	.st3{fill:#F5AF3C;stroke:#010202;stroke-width:0.7;stroke-miterlimit:10;}
	.st4{fill:#FCCF76;stroke:#010202;stroke-width:0.7;stroke-miterlimit:10;}
	.st5{fill:#F7B85B;stroke:#010202;stroke-width:0.7;stroke-miterlimit:10;}
	.st6{fill:#E09B2E;stroke:#010202;stroke-width:0.7;stroke-miterlimit:10;}
	.st7{fill:none;stroke:#FAF9F8;stroke-width:0.7;stroke-linecap:round;stroke-miterlimit:10;}
	.st8{fill:#FAF9F8;}
</style>
<g id="Calque_2">
	<path class="st0" d="M34,36.3c0,2.2-5,3.9-11.1,3.9s-11.1-1.7-11.1-3.9v15.4h22.4V36.3H34z"/>
	<ellipse class="st1" cx="23.1" cy="36.3" rx="11.2" ry="3.3"/>
</g>
<g id="Calque_3">
	<path class="st2" d="M36.1,10.1h3.3c0,0-0.3,6.2-5.4,6.7c-1.1,2.7-1.1,2.7-1.1,2.7s8.1-0.5,8.7-7c0.3-3.6,0.3-3.6,0.3-3.6
		S41.9,8,40.7,8c-1.2,0-4.1,0-4.1,0L36.1,10.1L36.1,10.1"/>
	<path class="st2" d="M9.8,10.1H6.5c0,0,0.3,6.2,5.4,6.7c1.1,2.7,1.1,2.7,1.1,2.7s-8.1-0.5-8.7-7C4,8.8,4,8.8,4,8.8S3.9,8,5.1,8
		c1.2,0,4.1,0,4.1,0L9.8,10.1L9.8,10.1"/>
	<path class="st3" d="M25.7,33.1c-1.3-2.2-1.1-6.1-1.1-6.1s-2,0.6-3.9,0.5c0.3,2.8-0.8,4.7-1.6,5.7c-2.2,0.4-3.8,1.1-3.8,1.9
		c0,1.2,3.4,2.2,7.6,2.2c4.2,0,7.6-1,7.6-2.2C30.5,34.3,28.5,33.5,25.7,33.1z"/>
	<g>
		<path class="st4" d="M22.9,8C16.1,8,10.9,6.3,9,5.2c-0.2-0.1-0.4,0-0.3,0.2C9.3,9.9,12.1,25.8,20.8,28c3.1,0.8,11.3,1.7,16.5-23.3
			l-0.1,0C36.7,6.6,30.5,8,22.9,8z"/>
	</g>
	<ellipse class="st5" cx="22.9" cy="4.5" rx="14.6" ry="3.6"/>
	<ellipse class="st6" cx="22.9" cy="4.5" rx="12.5" ry="2.4"/>
	<path class="st7" d="M14.5,19.7c0,0,3.1,5.7,6.2,6.5"/>
	<circle class="st8" cx="22.1" cy="26.7" r="0.4"/>
</g>
</svg>
