<?xml version="1.0" encoding="utf-8"?>
<!-- Generator: Adobe Illustrator 20.1.0, SVG Export Plug-In . SVG Version: 6.00 Build 0)  -->
<svg version="1.1" id="Calque_1" xmlns="http://www.w3.org/2000/svg" xmlns:xlink="http://www.w3.org/1999/xlink" x="0px" y="0px"
	 viewBox="0 0 500 500" style="enable-background:new 0 0 500 500;" xml:space="preserve">
<style type="text/css">
	.st0{fill:#777778;stroke:#020203;stroke-width:7;stroke-miterlimit:10;}
	.st1{fill:#E4F3F8;stroke:#020203;stroke-width:7;stroke-miterlimit:10;}
	.st2{fill:#ECF0F1;stroke:#020203;stroke-width:7;stroke-miterlimit:10;}
	.st3{fill:#F4E716;stroke:#020203;stroke-width:7;stroke-miterlimit:10;}
	.st4{fill:#DE378C;stroke:#020203;stroke-width:7;stroke-miterlimit:10;}
	.st5{fill:#B0D3F0;stroke:#020203;stroke-width:7;stroke-miterlimit:10;}
	.st6{fill:#FFFFFF;}
	.st7{fill:none;stroke:#FFFFFF;stroke-miterlimit:10;}
	.st8{fill:none;stroke:#FFFFFF;stroke-width:7;stroke-linecap:round;stroke-linejoin:round;stroke-miterlimit:10;}
</style>
<g transform="translate(-1 -1)">
	<path class="st0" d="M13.4,497c-2.2,0-4.3-0.9-6-2.5c-3.2-3.3-3.2-8.6,0.1-11.8L120.3,372c3.3-3.2,8.6-3.2,11.8,0.1
		c3.2,3.3,3.2,8.6-0.1,11.8L19.3,494.6C17.6,496.3,15.4,497,13.4,497"/>
	<polygon class="st0" points="421.5,106.5 391.7,76.7 445.1,23.3 474.9,53 	"/>
	<path class="st1" d="M159.8,344.3L159.8,344.3c-16.4-16.4-16.4-43.1,0-59.4l220-220l59.4,59.4l-220,220
		C202.8,360.8,176.2,360.8,159.8,344.3z"/>
	<path class="st2" d="M451.1,144.7c-2.2,0-4.3-0.8-6-2.4L361.9,59c-3.3-3.3-3.3-8.6,0-11.8c3.2-3.3,8.6-3.3,11.8,0l83.2,83.2
		c3.3,3.3,3.3,8.6,0,11.8C455.4,143.8,453.3,144.7,451.1,144.7"/>
	<path class="st3" d="M129.6,385.4l-10.8-10.8c-3.6-3.6-3.6-9.4,0-13l29.2-29.2l23.8,23.8l-29.2,29.2
		C139,388.9,133.1,388.9,129.6,385.4"/>
	<g>
		<path class="st4" d="M350.1,94.6l23.8,23.8c1.7,1.7,3.8,2.4,6,2.4s4.3-0.8,6-2.4c3.3-3.3,3.3-8.6,0-11.8L362,82.8l0,0L350.1,94.6
			L350.1,94.6z"/>
		<path class="st4" d="M350.1,142.1c1.7,1.7,3.8,2.4,6,2.4s4.3-0.8,6-2.4c3.3-3.3,3.3-8.6,0-11.8l-23.9-23.8l-11.8,11.8L350.1,142.1
			z"/>
		<path class="st4" d="M326.3,165.9c1.7,1.7,3.8,2.4,6,2.4s4.3-0.8,6-2.4c3.3-3.2,3.3-8.6,0-11.8l-23.8-23.8l-11.8,11.8L326.3,165.9
			z"/>
		<path class="st4" d="M278.7,165.9l23.8,23.8c1.7,1.7,3.8,2.4,6,2.4s4.3-0.8,6-2.4c3.3-3.2,3.3-8.6,0-11.8l-23.8-23.8l0,0
			L278.7,165.9L278.7,165.9z"/>
	</g>
	<path class="st2" d="M488.6,79.1c-2.2,0-4.3-0.8-6-2.4l-57.3-57.3c-3.3-3.2-3.3-8.6,0-11.8c3.2-3.3,8.6-3.3,11.8,0l57.3,57.3
		c3.3,3.3,3.3,8.6,0,11.8C492.9,78.2,490.8,79.1,488.6,79.1"/>
</g>
<path class="st5" d="M264.1,245.8h-58.4c-5.7,0-11.2,2.3-15.2,6.3l-31.8,31.8c-16.4,16.4-16.4,43.1,0,59.4l0,0
	c16.4,16.4,43.1,16.4,59.4,0l61-61C292.7,268.9,283.2,245.8,264.1,245.8z"/>
<path class="st6" d="M313.5,293.7H182.4c-6.5,0-11.7-5.3-11.7-11.7v-20.4c0-6.5,5.3-11.7,11.7-11.7h131.1c6.5,0,11.7,5.3,11.7,11.7
	v20.4C325.3,288.4,320,293.7,313.5,293.7z"/>
<path class="st4" d="M315.8,245.8H196.9l-46.6,46.6c-11.7,11.7-11.7,30.6,0,42.3l17.1,17.1c11.7,11.7,30.6,11.7,42.3,0L315.8,245.8z
	"/>
<path class="st7" d="M187.2,263.2"/>
<path class="st8" d="M225.5,232.4l-66.6,66.9c0,0-13.9,13.4-3.9,21.9"/>
<circle class="st6" cx="233.3" cy="223.5" r="4.6"/>
</svg>
