<svg id="Calque_1" data-name="Calque 1" xmlns="http://www.w3.org/2000/svg" viewBox="0 0 50 42.65"><defs><style>.cls-1{fill:#6a3c54;}.cls-2{fill:#020303;}.cls-3{fill:#513042;}.cls-4{fill:#cf5191;}.cls-5{fill:#a01d73;}.cls-6{fill:#f1dce1;}.cls-7{fill:#c1c2b3;}.cls-8{fill:#fff;}.cls-9{fill:#e4edf5;}</style></defs><title>Equipment</title><path class="cls-1" d="M25.55,3.48H24.45A12.65,12.65,0,0,0,11.79,16.13v2.76h4.4V14.48A8.79,8.79,0,0,1,25,5.68h0a8.79,8.79,0,0,1,8.79,8.79v4.4h4.4V16.11A12.6,12.6,0,0,0,25.55,3.48Z" transform="translate(0 -3.12)"/><path class="cls-2" d="M16.54,19.24h-5.1V16.13a13,13,0,0,1,13-13h1.11a13,13,0,0,1,13,13v3.11h-5.1V14.48a8.44,8.44,0,1,0-16.87,0v4.77Zm-4.4-.71h3.69V14.48a9.14,9.14,0,1,1,18.29,0v4h3.69V16.11A12.25,12.25,0,0,0,25.55,3.83H24.45a12.31,12.31,0,0,0-12.3,12.3v2.41Z" transform="translate(0 -3.12)"/><path class="cls-3" d="M11.91,16.42v2.76h2.25V16.42c-0.28-8,5.35-12.33,12.07-12.62a5.1,5.1,0,0,0-.55,0H24.56A12.66,12.66,0,0,0,11.91,16.42Z" transform="translate(0 -3.12)"/><path class="cls-4" d="M7.24,18A6.88,6.88,0,0,0,.35,24.92V38.53a6.88,6.88,0,0,0,6.89,6.89H8.46V18H7.24Z" transform="translate(0 -3.12)"/><path class="cls-2" d="M8.81,45.77H7.24A7.25,7.25,0,0,1,0,38.53V24.92a7.25,7.25,0,0,1,7.24-7.24H8.81V45.77ZM7.24,18.39A6.54,6.54,0,0,0,.71,24.92V38.53a6.54,6.54,0,0,0,6.53,6.53H8.1V18.39H7.24Z" transform="translate(0 -3.12)"/><path class="cls-5" d="M3.07,35.79V22.18a6.72,6.72,0,0,1,.86-3.3,6.86,6.86,0,0,0-3.58,6V38.53a6.88,6.88,0,0,0,6.89,6.89H8.46V42.5A6.89,6.89,0,0,1,3.07,35.79Z" transform="translate(0 -3.12)"/><rect class="cls-4" x="14.09" y="14.91" width="22.02" height="27.39"/><path class="cls-2" d="M36.46,45.78H13.74V17.68H36.46V45.78Zm-22-.71H35.76V18.39H14.45V45.07Z" transform="translate(0 -3.12)"/><rect class="cls-6" x="36.13" y="14.91" width="5.3" height="27.39"/><path class="cls-2" d="M41.78,45.78h-6V17.68h6V45.78Zm-5.3-.71h4.6V18.39h-4.6V45.07Z" transform="translate(0 -3.12)"/><path class="cls-4" d="M42.76,18H41.43V45.42h1.33a6.88,6.88,0,0,0,6.89-6.89V24.92A6.88,6.88,0,0,0,42.76,18Z" transform="translate(0 -3.12)"/><path class="cls-2" d="M42.76,45.78H41.08V17.68h1.68A7.25,7.25,0,0,1,50,24.92V38.54A7.25,7.25,0,0,1,42.76,45.78Zm-1-.71h1a6.54,6.54,0,0,0,6.53-6.53V24.92a6.54,6.54,0,0,0-6.53-6.53h-1V45.07Z" transform="translate(0 -3.12)"/><rect class="cls-6" x="8.46" y="14.91" width="5.64" height="27.39"/><path class="cls-2" d="M14.45,45.78H8.1V17.68h6.34V45.78Zm-5.64-.71h4.93V18.39H8.81V45.07Z" transform="translate(0 -3.12)"/><rect class="cls-7" x="36.13" y="39.56" width="5.3" height="2.74"/><path class="cls-2" d="M41.78,45.78h-6V42.33h6v3.45Zm-5.3-.71h4.6V43h-4.6v2Z" transform="translate(0 -3.12)"/><rect class="cls-7" x="8.46" y="39.56" width="5.64" height="2.74"/><path class="cls-2" d="M14.45,45.78H8.1V42.33h6.34v3.45Zm-5.64-.71h4.93V43H8.81v2Z" transform="translate(0 -3.12)"/><rect class="cls-8" x="16.78" y="25.28" width="16.43" height="1.17"/><path class="cls-2" d="M33.57,29.93H16.43V28.05H33.57v1.87Zm-16.43-.71H32.86V28.76H17.14v0.46Z" transform="translate(0 -3.12)"/><rect class="cls-8" x="18.93" y="25.86" width="1.17" height="2.74"/><path class="cls-2" d="M20.45,32.08H18.58V28.63h1.88v3.45Zm-1.17-.71h0.46v-2H19.28v2Z" transform="translate(0 -3.12)"/><path class="cls-9" d="M7.07,18.54A6.39,6.39,0,0,0,1.3,24.08c-0.06.44,0.61,0.64,0.67,0.18a5.71,5.71,0,0,1,5.08-5c0.44,0,.46-0.74,0-0.7h0Z" transform="translate(0 -3.12)"/><path class="cls-2" d="M8.61,45.56H7.24a7,7,0,0,1-7-7V24.92a7,7,0,0,1,7-7H8.61V45.56ZM7.24,18.18A6.74,6.74,0,0,0,.5,24.92V38.53a6.74,6.74,0,0,0,6.73,6.73H8.31V18.18H7.24Z" transform="translate(0 -3.12)"/><rect class="cls-5" x="14.42" y="39.56" width="21.38" height="2.49"/></svg>