<svg id="Calque_3" data-name="Calque 3" xmlns="http://www.w3.org/2000/svg" viewBox="0 0 44.66 49.9"><defs><style>.cls-1{fill:#f8f3b8;}.cls-1,.cls-2,.cls-3,.cls-4,.cls-5{stroke:#1d1d1b;}.cls-1,.cls-2{stroke-linecap:round;stroke-linejoin:round;}.cls-1,.cls-2,.cls-3,.cls-4{stroke-width:0.7px;}.cls-2{fill:#f3e600;}.cls-3{fill:#ea5485;}.cls-3,.cls-4,.cls-5{stroke-miterlimit:10;}.cls-4{fill:#66c1c0;}.cls-5{fill:#fff;stroke-width:0.2px;}</style></defs><title>esthetique</title><path class="cls-1" d="M4.6,38.38c2.7,11.48,14,11.45,14,11.45l0.08-.1,29.46-36s-2.18-11.06-14-11.45l-29.46,36Z" transform="translate(-3.81 -0.28)"/><path class="cls-2" d="M19.9,45.9L44.6,15.76S42.77,6.49,32.89,6.16L8.19,36.3l-0.07.09C10.38,46,19.83,46,19.83,46Z" transform="translate(-3.81 -0.28)"/><path class="cls-3" d="M13.34,18s8.47-.33,13.58,11.37c7.72,11.92,14.75,17.28,14.75,17.28s6.81,3.75,4.34-2.27S32.81,25.88,30.49,24.65s-9.36-6.83-7.85-14.56Z" transform="translate(-3.81 -0.28)"/><rect class="cls-4" x="4.32" y="6.38" width="21.45" height="8.77" rx="0.32" ry="0.32" transform="translate(-7.21 11.99) rotate(-40.24)"/><rect class="cls-5" x="5.25" y="8.43" width="16.67" height="0.78" transform="translate(-6.29 10.58) rotate(-40.24)"/><rect class="cls-5" x="6.25" y="9.62" width="16.67" height="0.78" transform="translate(-6.82 11.52) rotate(-40.24)"/><rect class="cls-5" x="7.39" y="10.96" width="16.67" height="0.78" transform="translate(-7.42 12.57) rotate(-40.24)"/><rect class="cls-5" x="8.4" y="12.15" width="16.67" height="0.78" transform="translate(-7.95 13.5) rotate(-40.24)"/></svg>