<svg id="Calque_1" data-name="Calque 1" xmlns="http://www.w3.org/2000/svg" viewBox="0 0 50 32.61"><defs><style>.cls-1{fill:#6f6f6e;}.cls-2{fill:#888989;}.cls-3{fill:#000100;}.cls-4{fill:#154859;}.cls-5{fill:#187ebe;}.cls-6{fill:#fff;}.cls-7{fill:#1384a0;}.cls-8{fill:#1f91ce;}</style></defs><title>haltere</title><g id="Calque_3" data-name="Calque 3"><rect class="cls-1" x="1.22" y="16" width="47.88" height="1.9"/><rect class="cls-2" x="1.22" y="14.21" width="47.88" height="1.9"/><path class="cls-3" d="M47.85,27.59H2.15A2.16,2.16,0,0,1,0,25.44V23.86A2.16,2.16,0,0,1,2.15,21.7H47.85A2.16,2.16,0,0,1,50,23.86v1.58A2.16,2.16,0,0,1,47.85,27.59ZM2.15,23.14a0.72,0.72,0,0,0-.72.72v1.58a0.72,0.72,0,0,0,.72.72H47.85a0.72,0.72,0,0,0,.72-0.72V23.86a0.72,0.72,0,0,0-.72-0.72H2.15Z" transform="translate(0 -8.64)"/><path class="cls-4" d="M8.39,33.77H6.16a2.34,2.34,0,0,1-2.33-2.33V18a2.34,2.34,0,0,1,2.33-2.33H8.4A2.34,2.34,0,0,1,10.73,18V31.44A2.35,2.35,0,0,1,8.39,33.77Z" transform="translate(0 -8.64)"/><path class="cls-3" d="M8.39,34.25H6.16a2.81,2.81,0,0,1-2.81-2.81V18a2.81,2.81,0,0,1,2.81-2.81H8.4A2.81,2.81,0,0,1,11.21,18V31.44A2.84,2.84,0,0,1,8.39,34.25ZM6.16,16.1A1.86,1.86,0,0,0,4.31,18V31.44a1.86,1.86,0,0,0,1.85,1.85H8.39a1.88,1.88,0,0,0,1.87-1.86V18A1.86,1.86,0,0,0,8.4,16.1H6.16Z" transform="translate(0 -8.64)"/><path class="cls-5" d="M6.39,27.54h-1A1.44,1.44,0,0,1,4,26.1v-9a1.44,1.44,0,0,1,1.44-1.44h1a1.44,1.44,0,0,1,1.44,1.44v9A1.44,1.44,0,0,1,6.39,27.54Z" transform="translate(0 -8.64)"/><path class="cls-3" d="M8.39,34.25H6.16a2.81,2.81,0,0,1-2.81-2.81V18a2.81,2.81,0,0,1,2.81-2.81H8.4A2.81,2.81,0,0,1,11.21,18V31.44A2.84,2.84,0,0,1,8.39,34.25ZM6.16,16.1A1.86,1.86,0,0,0,4.31,18V31.44a1.86,1.86,0,0,0,1.85,1.85H8.39a1.88,1.88,0,0,0,1.87-1.86V18A1.86,1.86,0,0,0,8.4,16.1H6.16Z" transform="translate(0 -8.64)"/><path class="cls-6" d="M7.31,18.5h0a0.51,0.51,0,0,1,.51.51V22a0.51,0.51,0,0,1-.51.51h0A0.51,0.51,0,0,1,6.79,22V19A0.52,0.52,0,0,1,7.31,18.5Z" transform="translate(0 -8.64)"/><circle class="cls-6" cx="7.31" cy="9.02" r="0.51"/><path class="cls-7" d="M15,40.77H12.74a2.34,2.34,0,0,1-2.33-2.33v-27a2.34,2.34,0,0,1,2.33-2.33H15a2.34,2.34,0,0,1,2.33,2.33v27A2.36,2.36,0,0,1,15,40.77Z" transform="translate(0 -8.64)"/><path class="cls-3" d="M15,41.25H12.74a2.81,2.81,0,0,1-2.81-2.81v-27a2.81,2.81,0,0,1,2.81-2.81H15a2.81,2.81,0,0,1,2.81,2.81v27A2.84,2.84,0,0,1,15,41.25ZM12.74,9.6a1.86,1.86,0,0,0-1.85,1.85v27a1.86,1.86,0,0,0,1.85,1.85H15a1.88,1.88,0,0,0,1.87-1.86v-27A1.86,1.86,0,0,0,15,9.6H12.74Z" transform="translate(0 -8.64)"/><path class="cls-8" d="M13,29.9H12a1.44,1.44,0,0,1-1.44-1.44V10.55A1.44,1.44,0,0,1,12,9.12h1a1.44,1.44,0,0,1,1.44,1.44V28.46A1.44,1.44,0,0,1,13,29.9Z" transform="translate(0 -8.64)"/><path class="cls-3" d="M15,41.25H12.74a2.81,2.81,0,0,1-2.81-2.81v-27a2.81,2.81,0,0,1,2.81-2.81H15a2.81,2.81,0,0,1,2.81,2.81v27A2.84,2.84,0,0,1,15,41.25ZM12.74,9.6a1.86,1.86,0,0,0-1.85,1.85v27a1.86,1.86,0,0,0,1.85,1.85H15a1.88,1.88,0,0,0,1.87-1.86v-27A1.86,1.86,0,0,0,15,9.6H12.74Z" transform="translate(0 -8.64)"/><path class="cls-6" d="M13.89,14.13h0a0.51,0.51,0,0,1,.51.51v5.89a0.51,0.51,0,0,1-.51.51h0a0.51,0.51,0,0,1-.51-0.51V14.65A0.51,0.51,0,0,1,13.89,14.13Z" transform="translate(0 -8.64)"/><ellipse class="cls-6" cx="13.89" cy="4.02" rx="0.51" ry="0.9"/><path class="cls-4" d="M44.45,33.77H42.21a2.34,2.34,0,0,1-2.33-2.33V18a2.34,2.34,0,0,1,2.33-2.33h2.24A2.34,2.34,0,0,1,46.78,18V31.44A2.34,2.34,0,0,1,44.45,33.77Z" transform="translate(0 -8.64)"/><path class="cls-3" d="M44.45,34.25H42.21a2.81,2.81,0,0,1-2.81-2.81V18a2.81,2.81,0,0,1,2.81-2.81h2.24A2.81,2.81,0,0,1,47.26,18V31.44A2.81,2.81,0,0,1,44.45,34.25ZM42.21,16.1A1.86,1.86,0,0,0,40.36,18V31.44a1.86,1.86,0,0,0,1.85,1.85h2.24a1.86,1.86,0,0,0,1.85-1.85V18a1.86,1.86,0,0,0-1.85-1.85H42.21Z" transform="translate(0 -8.64)"/><path class="cls-5" d="M42.45,27.54h-1A1.44,1.44,0,0,1,40,26.1v-9a1.44,1.44,0,0,1,1.44-1.44h1a1.44,1.44,0,0,1,1.44,1.44v9A1.44,1.44,0,0,1,42.45,27.54Z" transform="translate(0 -8.64)"/><path class="cls-3" d="M44.45,34.25H42.21a2.81,2.81,0,0,1-2.81-2.81V18a2.81,2.81,0,0,1,2.81-2.81h2.24A2.81,2.81,0,0,1,47.26,18V31.44A2.81,2.81,0,0,1,44.45,34.25ZM42.21,16.1A1.86,1.86,0,0,0,40.36,18V31.44a1.86,1.86,0,0,0,1.85,1.85h2.24a1.86,1.86,0,0,0,1.85-1.85V18a1.86,1.86,0,0,0-1.85-1.85H42.21Z" transform="translate(0 -8.64)"/><path class="cls-6" d="M43.37,18.5h0a0.51,0.51,0,0,1,.51.51V22a0.51,0.51,0,0,1-.51.51h0A0.51,0.51,0,0,1,42.86,22V19A0.52,0.52,0,0,1,43.37,18.5Z" transform="translate(0 -8.64)"/><circle class="cls-6" cx="43.37" cy="9.02" r="0.51"/><path class="cls-4" d="M37.51,40.77H35.28a2.34,2.34,0,0,1-2.33-2.33v-27a2.34,2.34,0,0,1,2.33-2.33h2.24a2.34,2.34,0,0,1,2.33,2.33v27A2.34,2.34,0,0,1,37.51,40.77Z" transform="translate(0 -8.64)"/><path class="cls-3" d="M37.51,41.25H35.28a2.81,2.81,0,0,1-2.81-2.81v-27a2.81,2.81,0,0,1,2.81-2.81h2.24a2.81,2.81,0,0,1,2.81,2.81v27A2.81,2.81,0,0,1,37.51,41.25ZM35.28,9.6a1.86,1.86,0,0,0-1.85,1.85v27a1.86,1.86,0,0,0,1.85,1.85h2.24a1.86,1.86,0,0,0,1.85-1.85v-27A1.86,1.86,0,0,0,37.51,9.6H35.28Z" transform="translate(0 -8.64)"/><path class="cls-5" d="M35.51,29.9h-1a1.44,1.44,0,0,1-1.44-1.44V10.55a1.44,1.44,0,0,1,1.44-1.44h1a1.44,1.44,0,0,1,1.44,1.44V28.46A1.44,1.44,0,0,1,35.51,29.9Z" transform="translate(0 -8.64)"/><path class="cls-3" d="M37.51,41.25H35.28a2.81,2.81,0,0,1-2.81-2.81v-27a2.81,2.81,0,0,1,2.81-2.81h2.24a2.81,2.81,0,0,1,2.81,2.81v27A2.81,2.81,0,0,1,37.51,41.25ZM35.28,9.6a1.86,1.86,0,0,0-1.85,1.85v27a1.86,1.86,0,0,0,1.85,1.85h2.24a1.86,1.86,0,0,0,1.85-1.85v-27A1.86,1.86,0,0,0,37.51,9.6H35.28Z" transform="translate(0 -8.64)"/><path class="cls-6" d="M36.44,14.13h0a0.51,0.51,0,0,1,.51.51v5.89a0.51,0.51,0,0,1-.51.51h0a0.51,0.51,0,0,1-.51-0.51V14.65A0.51,0.51,0,0,1,36.44,14.13Z" transform="translate(0 -8.64)"/><ellipse class="cls-6" cx="36.44" cy="4.02" rx="0.51" ry="0.9"/><path class="cls-7" d="M8.12,34.88H5.8a2.24,2.24,0,0,1-2.24-2.24v-16A2.24,2.24,0,0,1,5.8,14.39H8.12a2.24,2.24,0,0,1,2.24,2.24v16A2.26,2.26,0,0,1,8.12,34.88Z" transform="translate(0 -8.64)"/><path class="cls-3" d="M8.12,35.36H5.8a2.72,2.72,0,0,1-2.72-2.72v-16A2.72,2.72,0,0,1,5.8,13.92H8.12a2.72,2.72,0,0,1,2.72,2.72v16A2.74,2.74,0,0,1,8.12,35.36ZM5.8,14.87A1.76,1.76,0,0,0,4,16.63v16A1.76,1.76,0,0,0,5.8,34.41H8.12a1.77,1.77,0,0,0,1.76-1.76v-16a1.76,1.76,0,0,0-1.76-1.76H5.8Z" transform="translate(0 -8.64)"/><path class="cls-8" d="M6.24,27.85H4.94A1.25,1.25,0,0,1,3.7,26.61V15.66a1.25,1.25,0,0,1,1.24-1.24h1.3a1.25,1.25,0,0,1,1.24,1.24V26.61A1.24,1.24,0,0,1,6.24,27.85Z" transform="translate(0 -8.64)"/><path class="cls-3" d="M8.12,35.36H5.8a2.72,2.72,0,0,1-2.72-2.72v-16A2.72,2.72,0,0,1,5.8,13.92H8.12a2.72,2.72,0,0,1,2.72,2.72v16A2.74,2.74,0,0,1,8.12,35.36ZM5.8,14.87A1.76,1.76,0,0,0,4,16.63v16A1.76,1.76,0,0,0,5.8,34.41H8.12a1.77,1.77,0,0,0,1.76-1.76v-16a1.76,1.76,0,0,0-1.76-1.76H5.8Z" transform="translate(0 -8.64)"/><path class="cls-6" d="M6.82,17.65H7.17A0.33,0.33,0,0,1,7.5,18V21.8a0.33,0.33,0,0,1-.33.33H6.82a0.33,0.33,0,0,1-.33-0.33V18A0.33,0.33,0,0,1,6.82,17.65Z" transform="translate(0 -8.64)"/><ellipse class="cls-6" cx="6.99" cy="8.05" rx="0.5" ry="0.57"/><path class="cls-7" d="M37.57,40.77H35.35A2.34,2.34,0,0,1,33,38.44v-27a2.34,2.34,0,0,1,2.33-2.33h2.24a2.34,2.34,0,0,1,2.33,2.33v27A2.36,2.36,0,0,1,37.57,40.77Z" transform="translate(0 -8.64)"/><path class="cls-3" d="M37.57,41.25H35.35a2.81,2.81,0,0,1-2.81-2.81v-27a2.81,2.81,0,0,1,2.81-2.81h2.24a2.81,2.81,0,0,1,2.81,2.81v27A2.84,2.84,0,0,1,37.57,41.25ZM35.35,9.6a1.86,1.86,0,0,0-1.85,1.85v27a1.86,1.86,0,0,0,1.85,1.85h2.22a1.88,1.88,0,0,0,1.87-1.86v-27A1.86,1.86,0,0,0,37.58,9.6H35.35Z" transform="translate(0 -8.64)"/><path class="cls-8" d="M35.57,29.9h-1a1.44,1.44,0,0,1-1.44-1.44V10.55a1.44,1.44,0,0,1,1.44-1.44h1A1.44,1.44,0,0,1,37,10.55V28.46A1.44,1.44,0,0,1,35.57,29.9Z" transform="translate(0 -8.64)"/><path class="cls-3" d="M37.57,41.25H35.35a2.81,2.81,0,0,1-2.81-2.81v-27a2.81,2.81,0,0,1,2.81-2.81h2.24a2.81,2.81,0,0,1,2.81,2.81v27A2.84,2.84,0,0,1,37.57,41.25ZM35.35,9.6a1.86,1.86,0,0,0-1.85,1.85v27a1.86,1.86,0,0,0,1.85,1.85h2.22a1.88,1.88,0,0,0,1.87-1.86v-27A1.86,1.86,0,0,0,37.58,9.6H35.35Z" transform="translate(0 -8.64)"/><path class="cls-6" d="M36.5,14.13h0a0.51,0.51,0,0,1,.51.51v5.89a0.51,0.51,0,0,1-.51.51h0A0.51,0.51,0,0,1,36,20.53V14.65A0.51,0.51,0,0,1,36.5,14.13Z" transform="translate(0 -8.64)"/><ellipse class="cls-6" cx="36.5" cy="4.02" rx="0.51" ry="0.9"/><path class="cls-7" d="M44.61,35H42.28A2.24,2.24,0,0,1,40,32.77v-16a2.24,2.24,0,0,1,2.24-2.24h2.32a2.24,2.24,0,0,1,2.24,2.24v16A2.26,2.26,0,0,1,44.61,35Z" transform="translate(0 -8.64)"/><path class="cls-3" d="M44.61,35.48H42.28a2.72,2.72,0,0,1-2.72-2.72v-16A2.72,2.72,0,0,1,42.28,14h2.32a2.72,2.72,0,0,1,2.72,2.72v16A2.74,2.74,0,0,1,44.61,35.48ZM42.28,15a1.76,1.76,0,0,0-1.76,1.76v16a1.76,1.76,0,0,0,1.76,1.76h2.32a1.77,1.77,0,0,0,1.76-1.76v-16A1.76,1.76,0,0,0,44.61,15H42.28Z" transform="translate(0 -8.64)"/><path class="cls-8" d="M42.73,28h-1.3a1.25,1.25,0,0,1-1.24-1.24V15.78a1.25,1.25,0,0,1,1.24-1.24h1.3A1.25,1.25,0,0,1,44,15.78V26.73A1.24,1.24,0,0,1,42.73,28Z" transform="translate(0 -8.64)"/><path class="cls-3" d="M44.61,35.48H42.28a2.72,2.72,0,0,1-2.72-2.72v-16A2.72,2.72,0,0,1,42.28,14h2.32a2.72,2.72,0,0,1,2.72,2.72v16A2.74,2.74,0,0,1,44.61,35.48ZM42.28,15a1.76,1.76,0,0,0-1.76,1.76v16a1.76,1.76,0,0,0,1.76,1.76h2.32a1.77,1.77,0,0,0,1.76-1.76v-16A1.76,1.76,0,0,0,44.61,15H42.28Z" transform="translate(0 -8.64)"/><path class="cls-6" d="M43.3,17.77h0.35a0.33,0.33,0,0,1,.33.33v3.82a0.33,0.33,0,0,1-.33.33H43.3A0.33,0.33,0,0,1,43,21.92V18.09A0.33,0.33,0,0,1,43.3,17.77Z" transform="translate(0 -8.64)"/><ellipse class="cls-6" cx="43.47" cy="8.17" rx="0.5" ry="0.57"/></g></svg>