<svg id="Calque_1" data-name="Calque 1" xmlns="http://www.w3.org/2000/svg" viewBox="0 0 42.97 49.56"><defs><style>.cls-1{fill:#fff;}.cls-2{fill:#e30613;stroke:#1d1d1b;stroke-width:0.7px;}.cls-2,.cls-3{stroke-linecap:round;stroke-linejoin:round;}.cls-3{fill:none;stroke:#f8f7f7;stroke-width:0.75px;}.cls-4{fill:#f8f7f7;}.cls-5{fill:#ba1819;}</style></defs><title>avengers</title><path class="cls-1" d="M35,0.42H46.2V49.58H3.8q0-10.23,0-20.46a3.89,3.89,0,0,1,.13.55,21.21,21.21,0,0,0,3,9.16A13.7,13.7,0,0,0,7.8,40a24.35,24.35,0,0,1,1-2.25,2.54,2.54,0,0,0,0-2.54A17.73,17.73,0,0,1,21.13,10.58c0.76-.17,1.54-0.27,2.54-0.43L5,49.27c2.3,0,4.47,0,6.63,0A1.72,1.72,0,0,0,13.41,48c1.6-3.83,3.27-7.63,4.9-11.44a1.11,1.11,0,0,1,1.11-.88c3,0,6,0,9.07,0a5,5,0,0,1,.65.08l0.17,1.89,6.07-5.29-5.95-5.56-0.23.15-0.08,1.69H21.78l7-16A3.28,3.28,0,0,1,29,14c0,3.46,0,6.72,0,10.19a1.6,1.6,0,0,0,.44,1.05c1.31,1.21,2.67,2.58,4,3.74,0.4,0.35.82,0.66,1.24,1l0.28-.1V13.34a4,4,0,0,1,.51.25c5.09,4,7.65,9.26,7.15,15.75a17.66,17.66,0,0,1-20.77,16,26.83,26.83,0,0,1-4.55-1.41c-0.53-.18-0.82-0.15-1,0.38a12.53,12.53,0,0,1-.66,1.51c-0.36.65-.13,1,0.5,1.25a22.11,22.11,0,0,0,6.5,1.73A20.6,20.6,0,0,0,40.58,42a20.17,20.17,0,0,0,5.48-14.75,20.66,20.66,0,0,0-2.17-8.8A21.44,21.44,0,0,0,35.8,9.78,1.47,1.47,0,0,1,35,8.33C35,5.7,35,3.06,35,.42Zm0,34.25-0.23-.13C33,36,31.2,37.48,29.48,39a3.66,3.66,0,0,0-.55,1.31c1.94,0,3.67,0,5.39,0a0.84,0.84,0,0,0,.61-0.54C35,38.06,35,36.36,35,34.67Z" transform="translate(-3.45 -0.07)"/><path class="cls-2" d="M35,0.42c0,2.64,0,5.28,0,7.92a1.47,1.47,0,0,0,.8,1.45,21.44,21.44,0,0,1,8.09,8.71,20.66,20.66,0,0,1,2.17,8.8A20.17,20.17,0,0,1,40.58,42,20.6,20.6,0,0,1,22.69,48.8a22.11,22.11,0,0,1-6.5-1.73c-0.63-.26-0.86-0.59-0.5-1.25a12.53,12.53,0,0,0,.66-1.51c0.21-.53.5-0.57,1-0.38a26.83,26.83,0,0,0,4.55,1.41,17.66,17.66,0,0,0,20.77-16c0.5-6.48-2.06-11.73-7.15-15.75A4,4,0,0,0,35,13.34V29.89l-0.28.1c-0.41-.33-0.84-0.64-1.24-1-1.35-1.17-2.71-2.53-4-3.74a1.6,1.6,0,0,1-.44-1.05c0-3.46,0-6.72,0-10.19a3.28,3.28,0,0,0-.28-1.4l-7,16h7.37l0.08-1.69,0.23-.15,5.95,5.56-6.07,5.29-0.17-1.89a5,5,0,0,0-.65-0.08c-2.82,0-5.65,0-8.47,0h-0.6a1.11,1.11,0,0,0-1.11.88C16.68,40.39,15,44.18,13.41,48a1.72,1.72,0,0,1-1.82,1.27c-2.17,0-4.34,0-6.63,0L23.67,10.15c-1,.17-1.77.27-2.54,0.43A17.73,17.73,0,0,0,8.79,35.22a2.54,2.54,0,0,1,0,2.54A24.35,24.35,0,0,0,7.8,40a13.7,13.7,0,0,1-.88-1.17,21.21,21.21,0,0,1-3-9.16,3.89,3.89,0,0,0-.13-0.55V26.81a3.9,3.9,0,0,0,.12-0.55,19,19,0,0,1,1.53-6.38C8.83,12.41,14.51,7.91,22.73,7c2.14-.31,2.89-0.73,3.74-2.63a34.19,34.19,0,0,1,1.74-4H35Z" transform="translate(-3.45 -0.07)"/><path class="cls-2" d="M35,34.67c0,1.7,0,3.39,0,5.09a0.84,0.84,0,0,1-.61.54c-1.72,0-3.45,0-5.39,0A3.66,3.66,0,0,1,29.48,39c1.72-1.53,3.49-3,5.25-4.48Z" transform="translate(-3.45 -0.07)"/><path class="cls-3" d="M18.58,9.08s-10.33,3.51-12,12.14" transform="translate(-3.45 -0.07)"/><circle class="cls-4" cx="16.24" cy="8.49" r="0.38"/><polygon class="cls-5" points="24.86 12.75 17.93 28.27 17.5 28.27 24.72 12.39 24.86 12.75"/><polygon class="cls-5" points="30.89 31.97 26.23 36.03 26.29 36.66 31.25 32.31 30.89 31.97"/><path class="cls-5" d="M18.06,36C17.81,36.46,12.91,48,12.91,48a1.41,1.41,0,0,1-1.13.79L11,48.78a4.55,4.55,0,0,0,1.89-1.35c0.37-.73,5.08-11.8,5.08-11.8a1.21,1.21,0,0,1,.94-0.52h0.6A2.84,2.84,0,0,0,18.06,36Z" transform="translate(-3.45 -0.07)"/></svg>