<svg xmlns="http://www.w3.org/2000/svg" viewBox="0 0 50.12 48.18"><defs><style>.cls-1,.cls-12,.cls-16,.cls-5,.cls-7,.cls-8{fill:none;}.cls-1,.cls-5{stroke:#020000;}.cls-1,.cls-12,.cls-13,.cls-15,.cls-7{stroke-miterlimit:10;}.cls-2{fill:#b4ea54;}.cls-3{fill:#c6c605;}.cls-4{fill:#3fba11;}.cls-11,.cls-12,.cls-13,.cls-4,.cls-7,.cls-8,.cls-9{stroke:#000;}.cls-10,.cls-11,.cls-12,.cls-13,.cls-15,.cls-16,.cls-17,.cls-18,.cls-4,.cls-5,.cls-7,.cls-8,.cls-9{stroke-linecap:round;}.cls-10,.cls-11,.cls-16,.cls-17,.cls-18,.cls-4,.cls-5,.cls-8,.cls-9{stroke-linejoin:round;}.cls-17,.cls-6{fill:#126261;}.cls-10,.cls-11,.cls-13,.cls-15,.cls-7,.cls-8,.cls-9{stroke-width:0.75px;}.cls-13,.cls-14,.cls-9{fill:#020000;}.cls-10{stroke:#010202;}.cls-15,.cls-16{stroke:#fff;}.cls-16,.cls-17{stroke-width:0.5px;}.cls-17{stroke:#126261;}.cls-18{fill:#999;stroke:#999;opacity:0.2;}</style></defs><title>hulk icone fonctionnalité</title><g id="Calque_2" data-name="Calque 2"><path class="cls-1" d="M10,23.63s-.11,6.2,8,6.88c0,0,7.93-5.3,15.49.51,0,0,7.63-1.56,7.62-7.39" transform="translate(-0.03 -1.06)"/><ellipse class="cls-2" cx="25.8" cy="29.15" rx="1.42" ry="1.72"/><line class="cls-1" x1="27.71" y1="29.47" x2="25.64" y2="27.24"/><polyline class="cls-1" points="25.69 23.03 25.64 27.24 23.63 29.47"/></g><g id="Calque_4" data-name="Calque 4"><path class="cls-3" d="M38.84-4.62" transform="translate(-0.03 -1.06)"/></g><g id="Calque_6" data-name="Calque 6"><path class="cls-1" d="M10,23.63s-.11,6.2,8,6.88c0,0,7.93-5.3,15.49.51,0,0,7.63-1.56,7.62-7.39" transform="translate(-0.03 -1.06)"/></g><g id="Calque_8" data-name="Calque 8"><path class="cls-4" d="M14.39,2.58.56,15.11a.09.09,0,0,0,.06.15H3.51a.07.07,0,0,1,.07.07c-.12,1-1.42,12.08-.77,12.87s2.33,1.32,2.91,4.43a24.5,24.5,0,0,1,.07,6,3.09,3.09,0,0,0,1.81,3.1,29.06,29.06,0,0,1,6.47,3.92c3.88,3.2,12,3.11,12,3.11s6.27-.1,11-2.72,6.79-4.85,8.93-4.85l.5-.08.17-.06.08-.09-.95-8a.07.07,0,0,1,0-.06c.23-.19,1.78-1.6,3.16-5.51,1.27-3.61.38-3.7.08-3.65a.07.07,0,0,1-.08-.07L49.63,9a.11.11,0,0,0-.19-.07l-2.5,3.25a.07.07,0,0,1-.11,0L39,2.62A1.71,1.71,0,0,0,37.7,2H15.93A2.3,2.3,0,0,0,14.39,2.58Z" transform="translate(-0.03 -1.06)"/><path class="cls-5" d="M33.81,36.43s.24,1.86-3.26,1.9-10.06,0-10.06,0-2.48-.13-2.58-2" transform="translate(-0.03 -1.06)"/><path class="cls-5" d="M13.44,39.77s1.34-5.69,8.32-7.67c0,0-2.06,2.14.5,2.59a2.81,2.81,0,0,0,1.34-.19c.42-.27,2-.27,2.11.5s0,.42,0,.42,1.33-1.87,2.82-.65c0,0,3.51-.34,1.37-2.67a11.78,11.78,0,0,1,8.13,7.67" transform="translate(-0.03 -1.06)"/><polygon class="cls-6" points="20.36 27.44 20.22 28.56 17.94 29.71 14.07 29.03 11.17 26.74 9.71 23.93 9.71 23.19 11.28 24.62 12.63 25.47 14.03 26.09 16.17 26.36 18.12 26.36 20.36 27.44"/><polygon class="cls-6" points="30.82 27.54 30.96 28.67 33.24 29.81 37.11 29.13 40.01 26.84 41.47 24.04 41.47 23.29 39.91 24.73 38.55 25.57 37.15 26.19 35.01 26.46 33.06 26.46 30.82 27.54"/><ellipse class="cls-7" cx="17.43" cy="27.79" rx="1.74" ry="1.24"/><ellipse class="cls-2" cx="17.49" cy="27.74" rx="1.56" ry="1"/><ellipse class="cls-7" cx="34.14" cy="27.98" rx="1.74" ry="1.24"/><ellipse class="cls-2" cx="34.2" cy="27.93" rx="1.56" ry="1"/><ellipse cx="17.49" cy="27.74" rx="0.75" ry="0.49"/><ellipse cx="33.96" cy="27.79" rx="0.75" ry="0.49"/><path class="cls-8" d="M21.34,39.77s-.23,1.57,4.93,1.57" transform="translate(-0.03 -1.06)"/><path class="cls-8" d="M31.15,39.77s.23,1.57-4.93,1.57" transform="translate(-0.03 -1.06)"/><line class="cls-9" x1="26.02" y1="43.44" x2="26.02" y2="47.62"/><path class="cls-5" d="M9.29,23.56s-.12,6.51,8.44,7.22c0,0,8.32-5.56,16.25.53,0,0,8-1.64,8-7.75" transform="translate(-0.03 -1.06)"/><path class="cls-10" d="M41.31,21.83H37.66l-9,4.86,1.21,1.12L31,28.5s9-.54,10.84-5c0,0-1.93,3-2.36,2.05s-.42-1,.72-2.36C40.16,23.22,41.55,22.52,41.31,21.83Z" transform="translate(-0.03 -1.06)"/><path class="cls-11" d="M9.79,21.83h3.65l9,4.86-1.21,1.12-1.06.69s-9-.54-10.84-5c0,0,1.93,3,2.36,2.05s.42-1-.72-2.36C10.94,23.22,9.55,22.52,9.79,21.83Z" transform="translate(-0.03 -1.06)"/><path class="cls-2" d="M20.55,38.87H31.89S25.5,41,20.55,38.87Z" transform="translate(-0.03 -1.06)"/><ellipse class="cls-2" cx="25.97" cy="42.18" rx="1.46" ry="0.62"/><path class="cls-12" d="M19.06,44.51s1.86-2.76,7.19-2.42,5.93.52,7.22,2.42" transform="translate(-0.03 -1.06)"/><path class="cls-13" d="M3.53,14.81" transform="translate(-0.03 -1.06)"/><ellipse class="cls-14" cx="23.1" cy="23.36" rx="1.47" ry="0.7" transform="translate(-9.51 26.53) rotate(-52.71)"/><ellipse class="cls-14" cx="22.94" cy="23.48" rx="1.47" ry="0.7" transform="translate(-9.66 26.44) rotate(-52.71)"/><path class="cls-13" d="M16.31,1.93a3.15,3.15,0,0,0-2.09.78L1.66,14.81H3a.52.52,0,0,1,.52.57l-.33,3.78a.53.53,0,0,0,.61.56,1.32,1.32,0,0,1,1,.15c.4.4,2,2.39,1.69,3.29s1-1.4,2.79-1.59,8.67.4,9.07.3A28.88,28.88,0,0,0,21.43,19a.52.52,0,0,1,.89.38v4.82s16-9.32,22.29-2.68a.53.53,0,0,0,.72.06l2.76-2.3a3,3,0,0,0,1.06-2.2l.14-6.66A.67.67,0,0,0,48.14,10l-1.78,1.76a.52.52,0,0,1-.78-.05C44,9.72,38.06,2,37.32,2.07c-.77-.23-3.16.09-4-.06C25.36.66,19.15,2.14,16.31,1.93Z" transform="translate(-0.03 -1.06)"/><ellipse class="cls-14" cx="22.41" cy="23.81" rx="1.47" ry="0.7" transform="translate(-9.44 30.25) rotate(-60)"/><ellipse class="cls-14" cx="22.81" cy="22.97" rx="1.47" ry="0.7" transform="translate(-9.31 26.14) rotate(-52.71)"/><line class="cls-15" x1="15.83" y1="1.8" x2="5.55" y2="10.85"/><line class="cls-15" x1="4.25" y1="12.1" x2="3.15" y2="13.17"/><path class="cls-15" d="M44.87,40" transform="translate(-0.03 -1.06)"/><path class="cls-15" d="M43.82,32.24" transform="translate(-0.03 -1.06)"/><path class="cls-16" d="M45.71,40s-2.14-.37-5,2.19" transform="translate(-0.03 -1.06)"/><line class="cls-16" x1="40.21" y1="41.5" x2="39.24" y2="42.24"/><path class="cls-16" d="M38.82,43.66l-.21.14" transform="translate(-0.03 -1.06)"/><polygon class="cls-17" points="4.76 19.79 4.1 27.23 4.38 27.94 6.02 21.11 4.76 19.79"/><polygon class="cls-17" points="47.92 19.1 47.34 28.52 46.86 29.36 46.14 20.51 47.92 19.1"/><path class="cls-5" d="M9.68,38.54s2.47-5.08,3.49-5.52c0,0-7-.57-6.7-9.87h0L4.85,30.28" transform="translate(-0.03 -1.06)"/><path class="cls-5" d="M42.43,38.78S40,33.7,38.94,33.26c0,0,7-.57,6.7-9.87h0l.9,8.71" transform="translate(-0.03 -1.06)"/><path class="cls-18" d="M38.31,2.86s-9.24.45-12.09,5.44-5.67,5.18-5.67,5.18-8.6,4.3-6.36,4.68a33.16,33.16,0,0,0,7.14,0C21.93,18,30,18,34,18.09s5.27.12,6.71.56a25.61,25.61,0,0,0,3.44,1.06c1,.12,1.5.44,1.87,0s1.25-.94,1.37-1.31,1-1,1-1v-6s-.29,1.08-1,.83-1.55-.2-1.79-.51l-.71-.92C44.57,10.42,38.31,2.86,38.31,2.86Z" transform="translate(-0.03 -1.06)"/></g></svg>