<?xml version="1.0" encoding="utf-8"?>
<!-- Generator: Adobe Illustrator 20.1.0, SVG Export Plug-In . SVG Version: 6.00 Build 0)  -->
<svg version="1.1" id="Calque_1" xmlns="http://www.w3.org/2000/svg" xmlns:xlink="http://www.w3.org/1999/xlink" x="0px" y="0px"
	 viewBox="0 0 50 50" style="enable-background:new 0 0 50 50;" xml:space="preserve">
<style type="text/css">
	.st0{fill:#E5231E;stroke:#000000;stroke-width:0.7;stroke-miterlimit:10;}
	.st1{fill:none;stroke:#FFFFFF;stroke-width:0.5;stroke-linecap:round;stroke-miterlimit:10;}
	.st2{fill:#FFFFFF;}
</style>
<path class="st0" d="M46.3,17.9H31.1V3.7c0-1.8-1.4-3.2-3.2-3.2h-5.8c-1.8,0-3.2,1.4-3.2,3.2v14.2H3.7c-1.8,0-3.2,1.4-3.2,3.2v5.8
	c0,1.8,1.4,3.2,3.2,3.2h15.2v16.2c0,1.8,1.4,3.2,3.2,3.2h5.8c1.8,0,3.2-1.4,3.2-3.2V30.1h15.2c1.8,0,3.2-1.4,3.2-3.2v-5.8
	C49.5,19.4,48.1,17.9,46.3,17.9z"/>
<path class="st1" d="M12.7,19.5H3.5c0,0-1.3,0-1.3,1.2"/>
<circle class="st2" cx="2.1" cy="22.1" r="0.3"/>
<path class="st1" d="M20.3,13V3.8c0,0,0-1.3,1.2-1.3"/>
<circle class="st2" cx="22.8" cy="2.5" r="0.3"/>
</svg>
