<svg id="Calque_1" data-name="Calque 1" xmlns="http://www.w3.org/2000/svg" xmlns:xlink="http://www.w3.org/1999/xlink" viewBox="0 0 53.68 47.17"><defs><style>.cls-1,.cls-9{fill:none;}.cls-2{fill:#59595a;}.cls-3{fill:#1d1d1b;}.cls-4{fill:#67bfac;}.cls-5{clip-path:url(#clip-path);}.cls-6{fill:#9bd3cf;}.cls-7{fill:#575656;}.cls-8{fill:#c1c1c1;}.cls-9{stroke:#fff;stroke-linecap:round;stroke-miterlimit:10;stroke-width:0.7px;}</style><clipPath id="clip-path" transform="translate(0 -5.3)"><rect class="cls-1" x="2.11" y="16.14" width="45.78" height="25.46"/></clipPath></defs><title>TV</title><rect class="cls-2" x="0.5" y="8.78" width="49" height="29.58" rx="1.27" ry="1.27"/><path class="cls-3" d="M48.23,14.58a0.77,0.77,0,0,1,.77.77v27a0.77,0.77,0,0,1-.77.77H1.77A0.77,0.77,0,0,1,1,42.4v-27a0.77,0.77,0,0,1,.77-0.77H48.23m0-1H1.77A1.77,1.77,0,0,0,0,15.35v27a1.77,1.77,0,0,0,1.77,1.77H48.23A1.77,1.77,0,0,0,50,42.4v-27a1.77,1.77,0,0,0-1.77-1.77h0Z" transform="translate(0 -5.3)"/><rect class="cls-4" x="2.11" y="10.84" width="45.78" height="25.46"/><g class="cls-5"><polygon class="cls-6" points="39.66 0 6.68 38.24 20.7 47.17 53.68 8.93 39.66 0"/></g><rect class="cls-7" x="16.46" y="38.87" width="17.07" height="2.3"/><rect class="cls-8" x="16.46" y="41.17" width="17.07" height="2.3"/><rect class="cls-7" x="10.19" y="43.47" width="29.34" height="1.23"/><path class="cls-9" d="M13,17.69H4.71S3.35,17.37,3.35,20" transform="translate(0 -5.3)"/></svg>