<svg id="Calque_1" data-name="Calque 1" xmlns="http://www.w3.org/2000/svg" viewBox="0 0 19.23 50.06"><defs><style>.cls-1{fill:#faea39;}.cls-2{fill:#1d1d1b;}.cls-3{fill:#f2f2f2;}.cls-4{fill:#41bac0;}</style></defs><title>DNA</title><polyline class="cls-1" points="4.29 10.68 14.69 10.68 9.75 14.5 4.29 10.68 4.29 10.68"/><path class="cls-2" d="M25.22,14.86l-6.61-4.62H31.2ZM20.9,11l4.3,3,3.89-3H20.9Z" transform="translate(-15.46 0.09)"/><rect class="cls-1" x="2.26" y="19.12" width="14.3" height="2.51"/><path class="cls-2" d="M32.38,21.9h-15V18.67h15V21.9Zm-14.3-.72H31.66V19.39H18.08v1.79Z" transform="translate(-15.46 0.09)"/><rect class="cls-1" x="2.14" y="28.17" width="14.3" height="2.51"/><path class="cls-2" d="M32.26,31h-15V27.72h15V31ZM18,30.23H31.54V28.44H18v1.79Z" transform="translate(-15.46 0.09)"/><rect class="cls-1" x="6.69" y="36.19" width="5.19" height="3.35"/><path class="cls-2" d="M27.7,39.81H21.79V35.73H27.7v4.07Zm-5.19-.72H27V36.45H22.51v2.63Z" transform="translate(-15.46 0.09)"/><path class="cls-3" d="M18,6.61h1.71s3.75,5.9,6.41,6.05-1,1.75-1,1.75S18.49,9.71,18,6.61" transform="translate(-15.46 0.09)"/><path class="cls-3" d="M25.63,14.19l0,1.71s-5.86,3.82-6,6.47-1.76-.93-1.76-0.93,4.63-6.77,7.73-7.25" transform="translate(-15.46 0.09)"/><path class="cls-3" d="M18.12,20.09l1.23,1.19c0.11-.52-0.93,7.37.39,8.81,1.8,2-1.9.59-1.9,0.59s-1.55-8.05.29-10.59" transform="translate(-15.46 0.09)"/><path class="cls-3" d="M17,26.53l1.7,0.2s3.41,5.71,5.66,6.76c2.41,1.12-1.15,1.63-1.15,1.63S17.12,29.66,17,26.53" transform="translate(-15.46 0.09)"/><path class="cls-3" d="M18.49,43h1.71s3.75-5.9,6.41-6.05-1-1.75-1-1.75-6.72,4.7-7.16,7.8" transform="translate(-15.46 0.09)"/><rect class="cls-4" x="2.58" y="5.66" width="13.97" height="2.07"/><path class="cls-2" d="M32.38,8H17.68V5.21h14.7V8Zm-14-.72H31.66V5.93H18.4V7.28Z" transform="translate(-15.46 0.09)"/><rect class="cls-4" x="4.13" y="9.65" width="11" height="2.07"/><path class="cls-2" d="M31,12H19.23V9.2H31V12Zm-11-.72H30.23V9.92H20v1.34Z" transform="translate(-15.46 0.09)"/><rect class="cls-4" x="2.14" y="21.6" width="14.84" height="2.07"/><path class="cls-2" d="M32.8,23.94H17.24V21.15H32.8v2.79ZM18,23.22H32.08V21.87H18v1.34Z" transform="translate(-15.46 0.09)"/><rect class="cls-4" x="2.14" y="26.25" width="15.13" height="2.07"/><path class="cls-2" d="M33.09,28.59H17.24V25.8H33.09v2.79ZM18,27.87H32.37V26.52H18v1.34Z" transform="translate(-15.46 0.09)"/><rect class="cls-4" x="2.14" y="42.19" width="14.84" height="2.07"/><path class="cls-2" d="M32.8,44.53H17.24V41.74H32.8v2.79ZM18,43.81H32.08V42.46H18v1.34Z" transform="translate(-15.46 0.09)"/><rect class="cls-4" x="3.65" y="17.84" width="11.48" height="2.07"/><path class="cls-2" d="M31,20.18H18.75V17.39H31v2.79Zm-11.48-.72H30.23V18.11H19.47v1.34Z" transform="translate(-15.46 0.09)"/><rect class="cls-4" x="3.69" y="30.24" width="12.3" height="2.07"/><path class="cls-2" d="M31.81,32.58h-13V29.79h13v2.79Zm-12.3-.72H31.09V30.51H19.51v1.34Z" transform="translate(-15.46 0.09)"/><rect class="cls-4" x="4.56" y="38.21" width="10.13" height="2.07"/><path class="cls-2" d="M30.51,40.55H19.66V37.76H30.51v2.79Zm-10.13-.72h9.41V38.48H20.38v1.34Z" transform="translate(-15.46 0.09)"/><path class="cls-4" d="M16.71,49.61H16.6a0.89,0.89,0,0,1-.77-1c0.05-.42.09-0.82,0.14-1.22,0.5-4.67.87-8,9.61-13.5l0.1-.06c4.55-2.06,7-5.23,6.87-8.9-0.13-4-3.39-8-7.92-9.7a13,13,0,0,1-7.95-8.42,16.83,16.83,0,0,1-.85-5.71,0.89,0.89,0,0,1,1.77.1c0,0.38-.43,9.33,7.65,12.37,5.27,2,8.91,6.53,9.07,11.3,0.08,2.56-.83,7.34-7.85,10.55-8,5-8.27,7.84-8.74,12.16,0,0.4-.09.81-0.14,1.24A0.89,0.89,0,0,1,16.71,49.61Z" transform="translate(-15.46 0.09)"/><path class="cls-2" d="M16.71,50H16.56a1.25,1.25,0,0,1-1.09-1.39c0-.41.09-0.81,0.14-1.2,0.52-4.78.89-8.23,9.78-13.78h0l0.12-.07c4.41-2,6.77-5,6.66-8.56-0.13-3.86-3.29-7.72-7.69-9.38a13.37,13.37,0,0,1-8.16-8.65,17.22,17.22,0,0,1-.87-5.84A1.25,1.25,0,0,1,18,1.23c0,0.37-.42,9.06,7.42,12,5.4,2,9.14,6.71,9.3,11.63,0.09,2.65-.84,7.58-8,10.88-7.79,4.88-8.09,7.67-8.55,11.88v0c0,0.4-.09.8-0.14,1.23A1.25,1.25,0,0,1,16.71,50Zm9-15.76c-8.58,5.36-8.94,8.66-9.43,13.23,0,0.4-.09.8-0.14,1.22a0.52,0.52,0,0,0,.46.58h0.06a0.52,0.52,0,0,0,.52-0.46c0.05-.42.09-0.82,0.14-1.22v0a13.45,13.45,0,0,1,1.61-6c1.26-2.09,3.51-4.08,7.3-6.45l0,0c2.94-1.34,7.83-4.45,7.64-10.21-0.15-4.63-3.7-9-8.84-11C16.8,10.78,17.22,1.58,17.24,1.19a0.52,0.52,0,1,0-1-.06A16.42,16.42,0,0,0,17,6.7a12.67,12.67,0,0,0,7.73,8.2c4.67,1.76,8,5.88,8.16,10C33,28.76,30.52,32,25.84,34.17Z" transform="translate(-15.46 0.09)"/><path class="cls-4" d="M33.44,49.61a0.89,0.89,0,0,1-.88-0.78c-0.05-.43-0.1-0.84-0.14-1.24-0.47-4.32-.78-7.18-8.74-12.16-7-3.21-7.94-8-7.85-10.55,0.16-4.78,3.8-9.32,9.07-11.3,8.08-3,7.67-12,7.65-12.37a0.89,0.89,0,0,1,1.77-.1,16.83,16.83,0,0,1-.85,5.71,13,13,0,0,1-7.95,8.42c-4.53,1.71-7.79,5.7-7.92,9.7-0.12,3.68,2.32,6.84,6.87,8.9l0.1,0.06c8.74,5.46,9.1,8.83,9.61,13.5,0,0.39.09,0.8,0.14,1.22a0.89,0.89,0,0,1-.77,1H33.44Z" transform="translate(-15.46 0.09)"/><path class="cls-2" d="M33.44,50a1.25,1.25,0,0,1-1.24-1.1c-0.05-.44-0.1-0.89-0.14-1.24-0.46-4.21-.76-7-8.55-11.88-7.2-3.3-8.13-8.23-8-10.88,0.16-4.92,3.9-9.59,9.3-11.63,7.84-3,7.44-11.65,7.42-12a1.25,1.25,0,0,1,2.49-.15,17.2,17.2,0,0,1-.87,5.84,13.37,13.37,0,0,1-8.16,8.65C21.25,17.23,18.08,21.09,18,25c-0.12,3.52,2.25,6.56,6.66,8.56h0l0.12,0.07c8.89,5.55,9.26,9,9.78,13.77h0c0,0.39.09,0.79,0.13,1.2A1.25,1.25,0,0,1,33.59,50H33.44Zm0-49.34h0a0.53,0.53,0,0,0-.49.55c0,0.39.44,9.59-7.88,12.73-5.13,1.93-8.68,6.35-8.84,11C16,30.65,20.9,33.76,23.83,35.1l0,0c3.79,2.37,6,4.36,7.3,6.45a13.45,13.45,0,0,1,1.61,6c0,0.35.09,0.79,0.14,1.23a0.52,0.52,0,0,0,.52.46H33.5A0.52,0.52,0,0,0,34,48.66c-0.05-.42-0.09-0.82-0.14-1.21h0c-0.49-4.57-.85-7.87-9.43-13.23l-0.08,0c-4.69-2.13-7.2-5.41-7.07-9.24,0.14-4.15,3.49-8.27,8.16-10a12.67,12.67,0,0,0,7.73-8.2A16.4,16.4,0,0,0,34,1.12,0.53,0.53,0,0,0,33.43.63Z" transform="translate(-15.46 0.09)"/></svg>