<svg id="Calque_1" data-name="Calque 1" xmlns="http://www.w3.org/2000/svg" viewBox="0 0 44 50"><defs><style>.cls-1{fill:#faeb48;}.cls-2{fill:#000100;}.cls-3{fill:#695e1b;}.cls-4{fill:#933c8f;}.cls-5{fill:#f4f4f4;}.cls-6{fill:#fff;}.cls-7{fill:#ede560;}</style></defs><title>Pomme</title><path class="cls-1" d="M46,27a21.35,21.35,0,0,1-.49,3.37C44,37.27,39.4,43.55,37.75,45.55S33,48.7,30.64,49.2a23.06,23.06,0,0,1-3,.43H27.31a69.26,69.26,0,0,0-8.1,0,11.53,11.53,0,0,1-6.34-1.78,2.31,2.31,0,0,1-.78-0.77c-20.47-33.6,5.44-35.68,6.64-35.75H27.6a80.08,80.08,0,0,1,8.58.87,7.32,7.32,0,0,1,2.51.91C44.59,16.89,46.31,21.95,46,27Z" transform="translate(-3.88)"/><path class="cls-2" d="M18.64,49.85A12.31,12.31,0,0,1,12.77,48a2.52,2.52,0,0,1-.85-0.84c-4.08-6.69-6.6-12.62-7.5-17.63C3.66,25.34,4,21.73,5.56,18.82a13.77,13.77,0,0,1,7.68-6.44,20,20,0,0,1,5.47-1.26H27.6A79.72,79.72,0,0,1,36.2,12a7.53,7.53,0,0,1,2.59.94c5.27,3.38,7.77,8.1,7.41,14h0a21.6,21.6,0,0,1-.49,3.4C44,38.15,38.52,44.93,37.91,45.67,36.1,47.86,33,48.9,30.68,49.39a23.44,23.44,0,0,1-3,.44h-0.4a68.29,68.29,0,0,0-8.07,0Zm0.15-38.33h0a19.93,19.93,0,0,0-5.36,1.23A13.39,13.39,0,0,0,5.91,19c-1.47,2.83-1.84,6.35-1.1,10.48C5.7,34.44,8.2,40.33,12.25,47a2.12,2.12,0,0,0,.72.71,11.4,11.4,0,0,0,6.22,1.75,68.71,68.71,0,0,1,8.13,0h0.35A23,23,0,0,0,30.6,49c2.24-.48,5.27-1.49,7-3.59,0.61-.74,6-7.44,7.73-15.12A21.21,21.21,0,0,0,45.81,27c0.35-5.78-2.09-10.39-7.23-13.68a7.18,7.18,0,0,0-2.43-.88,81.42,81.42,0,0,0-8.55-.87H18.79Z" transform="translate(-3.88)"/><path class="cls-3" d="M25.82,11.34S25.54,7.75,23.17,6c-1.55,0-1.88.72-1.44,1s3.62,3.09,3.48,4.31h0.61Z" transform="translate(-3.88)"/><path class="cls-2" d="M26.2,11.68H24.82l0-.39c0.11-.95-2.8-3.65-3.32-4a0.68,0.68,0,0,1-.32-0.77c0.06-.2.37-0.86,1.94-0.86h0.11l0.09,0.07c2.48,1.78,2.78,5.4,2.79,5.55Zm-4.29-5h0a14.77,14.77,0,0,1,3.4,3.67,7,7,0,0,0-2.26-4A1.43,1.43,0,0,0,21.91,6.73Z" transform="translate(-3.88)"/><path class="cls-4" d="M26.44,10.77l0.72-1S29-1.09,41.62.51a15.26,15.26,0,0,1,5.85,1.27,11.5,11.5,0,0,1-11.26,8c-9.05,0-8.61,1.55-8.61,1.55H26Z" transform="translate(-3.88)"/><path class="cls-2" d="M28.06,11.67H25.33l0.83-1.11,0.67-.93a12.93,12.93,0,0,1,2.55-5.32C31.29,2,35-.68,41.64.16a15.47,15.47,0,0,1,6,1.31l0.25,0.13-0.08.28A12.07,12.07,0,0,1,45.5,6a11.67,11.67,0,0,1-9.29,4.13,34.35,34.35,0,0,0-6.57.47,2.94,2.94,0,0,0-1.68.68h0v0ZM26.72,11h0.61l0.08-.12c0.89-1.17,5.27-1.42,8.8-1.42A10.91,10.91,0,0,0,45,5.55,11.93,11.93,0,0,0,47,2,15.82,15.82,0,0,0,41.6.85h0a14.66,14.66,0,0,0-7.42.75,10.49,10.49,0,0,0-4.24,3.16A12.28,12.28,0,0,0,27.5,9.84V9.92Z" transform="translate(-3.88)"/><path class="cls-5" d="M7.4,25.8A0.35,0.35,0,0,1,7,25.48a10.68,10.68,0,0,1,3.34-8.93,12.11,12.11,0,0,1,3.85-2.47,0.35,0.35,0,0,1,.23.66h0a11.63,11.63,0,0,0-3.62,2.34,9.89,9.89,0,0,0-3.1,8.35,0.35,0.35,0,0,1-.32.37h0Z" transform="translate(-3.88)"/><circle class="cls-5" cx="3.79" cy="27.61" r="0.61"/><path class="cls-6" d="M29.8,9.47a0.35,0.35,0,0,1-.25-0.59c2.24-2.24,14.2-6.1,14.71-6.27a0.35,0.35,0,1,1,.21.66s-3.12,1-6.44,2.26c-5.51,2.08-7.38,3.23-8,3.84A0.35,0.35,0,0,1,29.8,9.47Z" transform="translate(-3.88)"/><path class="cls-6" d="M32.58,7.77H32.5a0.35,0.35,0,0,1-.26-0.42c0.06-.28.64-2.71,1.69-3.32a0.35,0.35,0,0,1,.35.6c-0.6.35-1.15,1.94-1.36,2.87A0.35,0.35,0,0,1,32.58,7.77Z" transform="translate(-3.88)"/><path class="cls-6" d="M38.09,5.48h0a0.35,0.35,0,0,1-.31-0.38,4.94,4.94,0,0,1,.9-2.4,0.35,0.35,0,0,1,.51.48,4.2,4.2,0,0,0-.71,2A0.35,0.35,0,0,1,38.09,5.48Z" transform="translate(-3.88)"/><path class="cls-6" d="M37.49,7.49a3.67,3.67,0,0,1-2.32-1.07,0.35,0.35,0,0,1,.5-0.49,2.86,2.86,0,0,0,2,.85,0.35,0.35,0,1,1,.08.69Z" transform="translate(-3.88)"/><path class="cls-6" d="M41.88,5.12a4.22,4.22,0,0,1-1.77-.48A0.35,0.35,0,0,1,40.45,4a3.12,3.12,0,0,0,1.73.37,0.35,0.35,0,1,1,.14.68A2.12,2.12,0,0,1,41.88,5.12Z" transform="translate(-3.88)"/><path class="cls-7" d="M45.53,30.1c-1.88,7.1-6.32,14.11-8.32,16.15-1.66,1.69-4.9,2.67-7.68,3-0.8.11-1.44,0.1-2.08,0.22,3.17-2.14,7.19-4.39,10.2-7.74C41.28,37.77,43.75,32.54,45.53,30.1Z" transform="translate(-3.88)"/><path class="cls-2" d="M18.64,50a12.46,12.46,0,0,1-6-1.85,2.67,2.67,0,0,1-.9-0.89c-7.59-12.45-9.73-22-6.36-28.51a13.92,13.92,0,0,1,7.76-6.51A20.19,20.19,0,0,1,18.7,11h8.9a79.82,79.82,0,0,1,8.63.87,7.71,7.71,0,0,1,2.65,1C44.2,16.23,46.71,21,46.36,27h0a21.75,21.75,0,0,1-.5,3.43C44.12,38.22,38.64,45,38,45.77,36.19,48,33,49,30.71,49.54a23.56,23.56,0,0,1-3,.44H27.28a68.11,68.11,0,0,0-8,0Zm0.14-38.33h0a19.77,19.77,0,0,0-5.32,1.22A13.25,13.25,0,0,0,6,19.08C4.59,21.87,4.22,25.37,5,29.46c0.89,4.94,3.38,10.8,7.43,17.44a2,2,0,0,0,.67.66,11.25,11.25,0,0,0,6.13,1.73,68.94,68.94,0,0,1,8.15,0h0.33a22.84,22.84,0,0,0,2.91-.43c2.21-.47,5.21-1.47,6.92-3.54,0.61-.74,6-7.41,7.7-15.06a21.07,21.07,0,0,0,.48-3.32C46,21.22,43.59,16.67,38.5,13.4a7,7,0,0,0-2.37-.86,81.52,81.52,0,0,0-8.53-.87H18.78Z" transform="translate(-3.88)"/></svg>