<?xml version="1.0" encoding="utf-8"?>
<!-- Generator: Adobe Illustrator 19.2.1, SVG Export Plug-In . SVG Version: 6.00 Build 0)  -->
<svg version="1.1" id="Calque_1" xmlns="http://www.w3.org/2000/svg" xmlns:xlink="http://www.w3.org/1999/xlink" x="0px" y="0px"
	 viewBox="0 0 50 50" style="enable-background:new 0 0 50 50;" xml:space="preserve">
<style type="text/css">
	.st0{fill:#3B5998;}
	.st1{fill:#FFFFFF;stroke:#000000;stroke-width:0.7;stroke-linecap:round;stroke-linejoin:round;stroke-miterlimit:10;}
</style>
<g>
	<path class="st0" d="M3.3,49.7c-1.6,0-3-1.3-3-3V3.3c0-1.6,1.3-3,3-3h43.4c1.6,0,3,1.3,3,3v43.4c0,1.6-1.3,3-3,3H3.3z"/>
	<path d="M46.7,0.7c1.4,0,2.6,1.2,2.6,2.6v43.4c0,1.4-1.2,2.6-2.6,2.6H3.3c-1.4,0-2.6-1.2-2.6-2.6V3.3c0-1.4,1.2-2.6,2.6-2.6H46.7
		 M46.7,0H3.3C1.5,0,0,1.5,0,3.3v43.4C0,48.5,1.5,50,3.3,50h43.4c1.8,0,3.3-1.5,3.3-3.3V3.3C50,1.5,48.5,0,46.7,0L46.7,0z"/>
</g>
<path class="st1" d="M41.8,8.7h-7.6c0,0-6.5,0.1-7.4,8c0,6.8,0,7,0,7h-6.2v7.2l6.4,0.3l-0.2,18.2l7.7,0.2L34.2,31l6.3,0l1-7.5
	l-7.3,0.1v-5.4c0,0-0.1-3,2.6-3c2.7,0,5.1,0.1,5.1,0.1V8.7z"/>
</svg>
