<svg id="Calque_1" data-name="Calque 1" xmlns="http://www.w3.org/2000/svg" viewBox="0 0 35.9 49.66"><defs><style>.cls-1{fill:#f6ef8e;}.cls-2{fill:#c4bc73;}.cls-3{fill:#ea5285;}.cls-4{fill:#ae3e69;}.cls-5{fill:#49bcc6;}.cls-6{fill:#3e9c9e;}.cls-7{fill:#e94c36;}.cls-8{fill:#2b3f51;}.cls-9{fill:#354a5f;}.cls-10{fill:none;stroke:#fff;stroke-linecap:round;stroke-miterlimit:10;}</style></defs><title>Space</title><g id="Strategy"><g id="mission_1" data-name="mission 1"><path class="cls-1" d="M34.24,11.38C34,11,25.36,14,25.36,14s-8.68-3-8.88-2.61l0,0c-7.46,15.74,2.56,33.28,2.56,33.28a1.19,1.19,0,0,0,1,.61H30.67a1.15,1.15,0,0,0,1-.61s10-17.55,2.53-33.3h0Z" transform="translate(-7.41 -0.37)"/><path d="M30.67,45.64H20.12a1.53,1.53,0,0,1-1.34-.79A47.09,47.09,0,0,1,14.67,34c-1.43-5.79-2.33-14.36,1.42-22.51l0,0,0.12-.26c0.15-.33.5-0.32,1.87,0,0.75,0.2,1.78.51,3.06,0.92,1.89,0.61,3.78,1.26,4.26,1.43,0.47-.16,2.37-0.82,4.26-1.43,1.28-.41,2.31-0.72,3.06-0.92,1.36-.37,1.71-0.37,1.87,0l0.13,0.26h0C38.42,19.65,37.52,28.23,36.1,34A47.12,47.12,0,0,1,32,44.84,1.49,1.49,0,0,1,30.67,45.64ZM16.77,11.69c-3.73,8-2.84,16.47-1.43,22.17a46.21,46.21,0,0,0,4,10.65v0a0.84,0.84,0,0,0,.73.42H30.67a0.81,0.81,0,0,0,.72-0.42v0a46.29,46.29,0,0,0,4-10.67c1.4-5.7,2.28-14.16-1.44-22.15a82.85,82.85,0,0,0-8.51,2.63l-0.11,0-0.11,0A85.28,85.28,0,0,0,16.77,11.69Z" transform="translate(-7.41 -0.37)"/><path class="cls-2" d="M34.23,11.39c7.47,15.75-2.53,33.3-2.53,33.3a1.15,1.15,0,0,1-1,.61H25.36V14C29.89,13.7,32.7,12.45,34.23,11.39Z" transform="translate(-7.41 -0.37)"/><path d="M30.67,45.64H25v-32l0.32,0c4.83-.31,7.52-1.73,8.69-2.55l0.33-.23,0.17,0.37c3.9,8.23,3,16.93,1.56,22.78A47.12,47.12,0,0,1,32,44.84,1.49,1.49,0,0,1,30.67,45.64Zm-5-.69h5a0.81,0.81,0,0,0,.72-0.42v0a46.29,46.29,0,0,0,4-10.67c1.39-5.65,2.27-14-1.35-21.94A13.64,13.64,0,0,1,31,13.3a22.46,22.46,0,0,1-5.32,1V45Z" transform="translate(-7.41 -0.37)"/><path class="cls-3" d="M25.36,0.71c-3.29,0-7.08,6.88-8.88,10.67C18,12.44,20.83,13.7,25.36,14c4.53-.29,7.35-1.55,8.88-2.61C32.44,7.59,28.66.71,25.36,0.71Z" transform="translate(-7.41 -0.37)"/><path d="M25.36,14.34h0c-2.15-.14-6.18-0.67-9.05-2.68l-0.24-.17,0.12-.26C17.73,8,21.72.37,25.36,0.37S33,8,34.55,11.23l0.12,0.26-0.24.17c-2.88,2-6.91,2.54-9.05,2.68h0Zm-8.44-3.08a17.49,17.49,0,0,0,8.44,2.39,17.49,17.49,0,0,0,8.44-2.39,45,45,0,0,0-3.72-6.43c-1.78-2.47-3.41-3.77-4.72-3.77s-2.94,1.3-4.72,3.77A45,45,0,0,0,16.92,11.26Z" transform="translate(-7.41 -0.37)"/><path class="cls-4" d="M25.36,0.71V14c4.53-.29,7.35-1.55,8.88-2.61C32.44,7.59,28.66.71,25.36,0.71Z" transform="translate(-7.41 -0.37)"/><path d="M25,14.36v-14h0.34C29,0.37,33,8,34.55,11.23l0.12,0.26-0.24.17c-2.88,2-6.91,2.54-9.05,2.68ZM25.71,1.08V13.62a17.23,17.23,0,0,0,8.1-2.37C32.54,8.63,28.86,1.57,25.71,1.08Z" transform="translate(-7.41 -0.37)"/><path class="cls-5" d="M16.53,32.82l3.6,10.08a0.44,0.44,0,0,1-.46.63S13,42.83,13,49.13a0.5,0.5,0,0,1-.47.55H9.89a1.14,1.14,0,0,1-1-.63S3.33,36.25,16.53,32.82Z" transform="translate(-7.41 -0.37)"/><path d="M12.48,50H9.89a1.49,1.49,0,0,1-1.28-.83h0a6.94,6.94,0,0,1-.36-1,18,18,0,0,1-.62-2.5C7,41.8,7.22,34.88,16.44,32.48l0.3-.08,3.7,10.38a0.82,0.82,0,0,1-.08.77,0.81,0.81,0,0,1-.7.32h0s-3-.29-4.85,1.38a5,5,0,0,0-1.5,3.88,1,1,0,0,1-.24.67A0.77,0.77,0,0,1,12.48,50ZM9.25,48.92h0a0.8,0.8,0,0,0,.65.42h2.59a0.12,0.12,0,0,0,.08,0,0.31,0.31,0,0,0,0-.18,5.65,5.65,0,0,1,1.73-4.41,7.63,7.63,0,0,1,5.36-1.55,0.15,0.15,0,0,0,.12,0,0.16,0.16,0,0,0,0-.14l-3.49-9.79c-3.57,1-6,2.79-7.25,5.35C6.81,43.2,9.21,48.84,9.25,48.92Z" transform="translate(-7.41 -0.37)"/><path class="cls-6" d="M34.2,32.82L30.6,42.9a0.44,0.44,0,0,0,.46.63s6.72-.71,6.72,5.6a0.5,0.5,0,0,0,.47.55h2.59a1.14,1.14,0,0,0,1-.63S47.39,36.25,34.2,32.82Z" transform="translate(-7.41 -0.37)"/><path d="M40.83,50H38.25a0.77,0.77,0,0,1-.58-0.23,1,1,0,0,1-.24-0.67,5,5,0,0,0-1.5-3.88,7.05,7.05,0,0,0-4.84-1.38h0a0.78,0.78,0,0,1-.79-1.09L34,32.41l0.3,0.08c4,1,6.73,3,8.07,5.95a12.54,12.54,0,0,1,.73,7.28,18,18,0,0,1-.62,2.5,7.27,7.27,0,0,1-.36,1h0A1.49,1.49,0,0,1,40.83,50Zm-9.17-6.87a7.23,7.23,0,0,1,4.73,1.57,5.64,5.64,0,0,1,1.73,4.4v0a0.3,0.3,0,0,0,0,.17,0.12,0.12,0,0,0,.08,0h2.59a0.8,0.8,0,0,0,.65-0.42h0c0-.09,2.43-5.72.18-10.34C40.42,36,38,34.22,34.41,33.23L30.92,43a0.16,0.16,0,0,0,0,.14,0.15,0.15,0,0,0,.12,0C31.1,43.18,31.33,43.16,31.66,43.16Z" transform="translate(-7.41 -0.37)"/><circle class="cls-7" cx="17.92" cy="22.74" r="6.47"/><path d="M25.33,29.92a6.81,6.81,0,1,1,6.81-6.81A6.82,6.82,0,0,1,25.33,29.92Zm0-12.94a6.13,6.13,0,1,0,6.13,6.13A6.14,6.14,0,0,0,25.33,17Z" transform="translate(-7.41 -0.37)"/><path class="cls-8" d="M25.33,28.32a5.21,5.21,0,1,1,5.21-5.21A5.22,5.22,0,0,1,25.33,28.32Z" transform="translate(-7.41 -0.37)"/><path d="M25.33,28.67A5.56,5.56,0,1,1,29.25,27,5.56,5.56,0,0,1,25.33,28.67Zm0-10.42a4.87,4.87,0,1,0,4.87,4.87A4.87,4.87,0,0,0,25.33,18.24Z" transform="translate(-7.41 -0.37)"/><path class="cls-9" d="M25.18,28.32L30.54,23a5.19,5.19,0,0,0-1.4-3.41l-7.36,7.36A5.19,5.19,0,0,0,25.18,28.32Z" transform="translate(-7.41 -0.37)"/><path d="M25.32,28.67H25.17a5.54,5.54,0,0,1-3.63-1.49l-0.26-.24,7.86-7.86,0.24,0.26A5.55,5.55,0,0,1,30.88,23V23.1Zm-3-1.76A4.86,4.86,0,0,0,25,28l5.14-5.14a4.86,4.86,0,0,0-1.07-2.77Z" transform="translate(-7.41 -0.37)"/><path class="cls-9" d="M20.58,25.26l6.9-6.9A5.17,5.17,0,0,0,26,17.94l-5.8,5.8A5.16,5.16,0,0,0,20.58,25.26Z" transform="translate(-7.41 -0.37)"/><path d="M20.48,25.86l-0.2-.45a5.51,5.51,0,0,1-.46-1.63l0-.17,6-6,0.17,0a5.51,5.51,0,0,1,1.63.46l0.45,0.21Zm0-2a4.82,4.82,0,0,0,.19.8l6.16-6.16a4.84,4.84,0,0,0-.8-0.19Z" transform="translate(-7.41 -0.37)"/><path class="cls-5" d="M25,32.81a0.69,0.69,0,0,0-.69.69V49a0.69,0.69,0,0,0,.69.69h0.41V32.81H25Z" transform="translate(-7.41 -0.37)"/><path d="M25.71,50H25a1,1,0,0,1-1-1V33.49a1,1,0,0,1,1-1h0.75V50ZM25,33.15a0.34,0.34,0,0,0-.34.34V49a0.34,0.34,0,0,0,.34.34H25V33.15H25Z" transform="translate(-7.41 -0.37)"/><path class="cls-6" d="M25.64,32.81H25.36V49.69h0.27A0.69,0.69,0,0,0,26.32,49V33.49A0.69,0.69,0,0,0,25.64,32.81Z" transform="translate(-7.41 -0.37)"/><path d="M25.64,50H25V32.46h0.62a1,1,0,0,1,1,1V49A1,1,0,0,1,25.64,50Zm0.07-16.87V49.34A0.34,0.34,0,0,0,26,49V33.49A0.34,0.34,0,0,0,25.71,33.16Z" transform="translate(-7.41 -0.37)"/><path class="cls-10" d="M24.39,2.18s-2,.57-4.27,5.19" transform="translate(-7.41 -0.37)"/></g></g><path class="cls-10" d="M15.07,21.48s0.73-6.2,1.85-8.2" transform="translate(-7.41 -0.37)"/><path class="cls-10" d="M15.64,34.27s-4.47,1.63-5.75,4.66" transform="translate(-7.41 -0.37)"/></svg>