<svg xmlns="http://www.w3.org/2000/svg" viewBox="0 0 50.16 47.75"><defs><style>.cls-1{fill:#f45d88;stroke:#000;}.cls-1,.cls-2,.cls-3{stroke-linecap:round;stroke-linejoin:round;}.cls-2{fill:#f9f93e;stroke:#f9f93e;}.cls-2,.cls-3{stroke-width:0.5px;}.cls-3{fill:#fff;stroke:#fff;}</style></defs><title>Stars</title><g id="Calque_1" data-name="Calque 1"><polygon id="_Tracé_" data-name="&lt;Tracé&gt;" class="cls-1" points="25.08 0.5 32.67 18.17 49.66 18.36 35.34 27.96 40.27 47.25 25.08 36.65 9.89 47.25 14.66 28.39 0.5 18.36 17.48 18.17 25.08 0.5"/><polygon id="_Tracé_2" data-name="&lt;Tracé&gt;" class="cls-2" points="25.07 9.31 29.92 20.6 40.77 20.72 31.62 26.85 34.77 39.18 25.07 32.4 15.36 39.18 18.41 27.12 9.36 20.72 20.21 20.6 25.07 9.31"/><path class="cls-1" d="M4.13,20.35" transform="translate(0.08 -0.44)"/></g><g id="Calque_2" data-name="Calque 2"><line class="cls-3" x1="16.4" y1="19.59" x2="9.71" y2="19.65"/><line class="cls-3" x1="8.22" y1="19.64" x2="6.86" y2="19.65"/><line class="cls-3" x1="5.02" y1="19.69" x2="4.6" y2="19.69"/></g></svg>