<svg id="Calque_1" data-name="Calque 1" xmlns="http://www.w3.org/2000/svg" viewBox="0 0 49.64 49.64"><defs><style>.cls-1{fill:#358fce;}.cls-2{fill:#1d1d1b;}.cls-3,.cls-4,.cls-5{fill:#3fab35;}.cls-3,.cls-4{stroke:#1d1d1b;}.cls-3,.cls-6{stroke-miterlimit:10;}.cls-4,.cls-6{stroke-linecap:round;}.cls-4{stroke-linejoin:round;}.cls-6{fill:none;stroke:#fdfdfd;stroke-width:0.5px;}.cls-7{fill:#fdfdfd;}</style></defs><title>world</title><path class="cls-1" d="M24.82,49.32A24.32,24.32,0,1,1,49.14,25,24.35,24.35,0,0,1,24.82,49.32Z" transform="translate(0 -0.18)"/><path class="cls-2" d="M24.82,1.18A23.82,23.82,0,1,1,1,25,23.85,23.85,0,0,1,24.82,1.18m0-1A24.82,24.82,0,1,0,49.64,25,24.82,24.82,0,0,0,24.82.18h0Z" transform="translate(0 -0.18)"/><path class="cls-3" d="M14.33,5.1c0.07-.15.09-0.2,0.12-0.25,0.21-.34.12-0.51-0.28-0.52h-0.9A2.73,2.73,0,0,1,16,3.19a1.14,1.14,0,0,1,.45.46,1.13,1.13,0,0,0,1.76.17,0.49,0.49,0,0,1,.84,0,2,2,0,0,1-1.38.92c-0.74,0-.74,0-0.56.86l1.26-.07a0.25,0.25,0,0,0,.18-0.08,0.68,0.68,0,0,1,.83-0.36c0.43,0,.53-0.21.46-0.6l-0.48-.15a0.6,0.6,0,0,1,.59-0.72c0.55,0,1.1,0,1.65,0l0.06,0.13c-0.18.15-.34,0.31-0.53,0.45a0.49,0.49,0,0,0-.23.7,1.37,1.37,0,0,0,.6.31,1.2,1.2,0,0,0,.36,0,4.74,4.74,0,0,1,0-.79A0.65,0.65,0,0,1,22.06,4a3.31,3.31,0,0,1,3.22-.16c0.41,0.21.84,0.36,1.25,0.57a0.47,0.47,0,0,1,.25.32,0.65,0.65,0,0,0,.71.86c-0.16.68-.25,0.79-0.85,0.76a0.6,0.6,0,0,0-.74.48,0.34,0.34,0,0,1-.49.28c-0.56-.15-1.14-0.27-1.7-0.41a3.09,3.09,0,0,1-.37-0.16l1.81-1A1.19,1.19,0,0,0,24,5a2.33,2.33,0,0,0-1.74.72,1.93,1.93,0,0,1-.88.26l0.33,0.52a2.37,2.37,0,0,0-.39.1,3,3,0,0,0-.27.2,0.91,0.91,0,0,1-.42.2,0.43,0.43,0,0,1-.28-0.3c-0.06-.32-0.21-0.41-0.49-0.28-0.76.37-1.52,0.74-2.26,1.15-0.24.13-.65,0.14-0.6,0.62a1.13,1.13,0,0,0,.86,1,4.47,4.47,0,0,0,.9.15,0.29,0.29,0,0,1,.31.35c0,0.25,0,.5,0,0.75a0.49,0.49,0,0,0,.13.3,1.73,1.73,0,0,0,.45-0.13,0.06,0.06,0,0,0,0,0,1.8,1.8,0,0,1,1.56-1.34A0.48,0.48,0,0,0,21.51,9a7.7,7.7,0,0,0,0-.92,0.92,0.92,0,0,1,1.24-1c0.31,0.07.62,0.16,0.94,0.21a0.39,0.39,0,0,1,.37.51c-0.06.84,0,.89,0.81,0.51l0.89-.43c0,0.42.09,0.77,0.09,1.12a0.65,0.65,0,0,0,.39.62,0.74,0.74,0,0,1,.58.58c0,0.62,0,.66-0.61.89a1.4,1.4,0,0,0-.31.22,1.54,1.54,0,0,0,.28.27,4,4,0,0,0,.61.27,0.4,0.4,0,0,1,.21.61,0.59,0.59,0,0,1-.49.1,7.58,7.58,0,0,1-1-.3,0.38,0.38,0,0,1-.14-0.7,0.84,0.84,0,0,0,.2-0.37,0.28,0.28,0,0,0-.17-0.2,0.26,0.26,0,0,0-.24.07,1.32,1.32,0,0,1-1.16.37,0.27,0.27,0,0,1-.17-0.15A0.63,0.63,0,0,0,23,11a0.47,0.47,0,0,0-.3.31,0.48,0.48,0,0,0,.23.36,2.44,2.44,0,0,0,.58.18l-0.41.46c-0.62-.32-0.66-0.36-1.11.18A9.28,9.28,0,0,1,20,14a11.82,11.82,0,0,0-1.65,1.64,0.23,0.23,0,0,0-.06.15,1.31,1.31,0,0,1-.9,1.13l-0.63.41a1.64,1.64,0,0,0-.88,1.8,4.46,4.46,0,0,1,0,.64,6,6,0,0,1-1-.47,0.74,0.74,0,0,1-.1-0.54,0.33,0.33,0,0,0-.41-0.41,17.52,17.52,0,0,0-2.29,0A2.58,2.58,0,0,0,10,19.71a12.93,12.93,0,0,0-.58,1.42,0.71,0.71,0,0,0,0,.47,1.22,1.22,0,0,0,2,.58l1.45-1c0.47,0.69-.15,1.13-0.28,1.72,0.35,0.07.69,0.15,1,.18a0.36,0.36,0,0,1,.39.42c0,0.53.07,1.06,0.1,1.58a0.4,0.4,0,0,0,.4.43c0.43,0.06.85,0.18,1.28,0.21a0.83,0.83,0,0,0,.57-0.21c0.32-.31.58-0.68,0.89-1a0.69,0.69,0,0,1,.46-0.17c0.25,0,.49.11,0.74,0.13a1,1,0,0,1,.89.58,0.48,0.48,0,0,0,.55.28c0.21,0,.42,0,0.63,0s0.6,0,.58-0.42a1.51,1.51,0,0,1,1.12.8,1.52,1.52,0,0,0,1.78,1,1.19,1.19,0,0,1,1.06,1.12,2.68,2.68,0,0,1,.06.62,0.73,0.73,0,0,0,.53.77,5.83,5.83,0,0,0,3,.46,0.71,0.71,0,0,1,.79.45,1.33,1.33,0,0,0,1.07.87,0.27,0.27,0,0,1,.25.41,4.08,4.08,0,0,1-.54,1.1,3.06,3.06,0,0,0-.8,2c0,0.53-.1,1.05-0.16,1.58A1.65,1.65,0,0,1,28,37.3H27.42a0.89,0.89,0,0,0-1,1.24,1.93,1.93,0,0,1-.5,2.13,16.39,16.39,0,0,0-1.26,1.81,0.64,0.64,0,0,1-.23.23,6.12,6.12,0,0,1-2,.77,1,1,0,0,0-.38.23,1.22,1.22,0,0,0,.32.3c0.37,0.15.45,0.36,0.17,0.66S22.17,45,22,45.12a0.74,0.74,0,0,0,.75.52c0.32,0,.43.14,0.37,0.43a3.75,3.75,0,0,1-.11.45c-0.23.71-.24,0.71,0.34,1.2a2.42,2.42,0,0,1,.43.39,0.52,0.52,0,0,1,.06.41,0.41,0.41,0,0,1-.3.21,2.46,2.46,0,0,1-2-.58,9.85,9.85,0,0,1-1.9-2.66,0.81,0.81,0,0,1-.07-0.4,3.58,3.58,0,0,1,.06-0.58,2,2,0,0,0-.56-2,0.7,0.7,0,0,1-.18-0.76,8.7,8.7,0,0,0,.22-1.19A0.5,0.5,0,0,0,19,40.1a0.41,0.41,0,0,1-.29-0.48c0-1.2,0-2.4,0-3.59a0.63,0.63,0,0,0-.29-0.59,4.59,4.59,0,0,0-1.82-1,0.39,0.39,0,0,1-.25-0.27,2.37,2.37,0,0,0-.66-1.27c-0.39-.46-0.78-0.91-1.12-1.41a1.28,1.28,0,0,1-.19-0.72,10.77,10.77,0,0,1,.15-1.53,1.72,1.72,0,0,1,.3-0.58,1,1,0,0,1,.23-0.17,1.87,1.87,0,0,0,.74-0.62,3.79,3.79,0,0,0-.12-1.31,0.34,0.34,0,0,0-.23-0.17,1.71,1.71,0,0,0-.54-0.06,2,2,0,0,1-2-1,2.54,2.54,0,0,0-2-1.14c-0.28,0-.52-0.1-0.46-0.48a0.33,0.33,0,0,0-.19-0.26,0.8,0.8,0,0,0-.57,0,0.29,0.29,0,0,1-.41.12c-0.5-.13-1-0.23-1.49-0.39a1.67,1.67,0,0,1-.61-0.43,5.64,5.64,0,0,1-.4-0.58,0.66,0.66,0,0,1-.07-0.87,0.56,0.56,0,0,0,0-.48,7.36,7.36,0,0,0-.7-1,3.15,3.15,0,0,1-.69-1.84c0-.43,0-0.43-0.54-0.4A3.28,3.28,0,0,0,5,19.15c0.21,0.34.44,0.68,0.66,1a0.64,0.64,0,0,1,0,.81,0.91,0.91,0,0,1-.92-0.26C4.52,20.26,4.26,19.82,4,19.37a1.21,1.21,0,0,1-.12-0.48,3.36,3.36,0,0,1,0-.75,1,1,0,0,0-.82-1.38,0.36,0.36,0,0,1-.23-0.26A3.88,3.88,0,0,1,3,15.12,24.5,24.5,0,0,1,11.51,4.74a1.36,1.36,0,0,1,1.24-.07c0.33,0.1.65,0.23,1,.34a0.62,0.62,0,0,1,.63.44,0.26,0.26,0,0,0,.2.11h1.34a0.36,0.36,0,0,0-.43-0.46C15.1,5.11,14.75,5.1,14.33,5.1Z" transform="translate(0 -0.18)"/><path class="cls-3" d="M43.27,40.6a0.85,0.85,0,0,1,0-.23,1.87,1.87,0,0,0-.61-1.69,1.32,1.32,0,0,1-.39-1.14c0-.19,0-0.39,0-0.58a1.39,1.39,0,0,0-.52-1.36,1.14,1.14,0,0,1-.15-1.28c0.21-.42.42-0.85,0.66-1.26a0.54,0.54,0,0,0,0-.61c-0.49-.83-1-1.66-1.42-2.5a1.47,1.47,0,0,1-.15-0.71,13.94,13.94,0,0,1,.13-1.41c0-.23,0-0.35-0.26-0.36l-0.62-.07a1.45,1.45,0,0,1-1.1-.48,1.27,1.27,0,0,0-1.42,0,1.19,1.19,0,0,1-.86.32c-0.7,0-1.4.13-2.1,0.14a1,1,0,0,1-.68-0.29c-0.68-.73-1.33-1.5-2-2.26a0.73,0.73,0,0,1-.19-0.4c0-.58,0-1.17,0-1.75a0.39,0.39,0,0,1,.18-0.29,0.56,0.56,0,0,0,.3-0.63,0.3,0.3,0,0,0-.17-0.23c-0.45,0-.39-0.41-0.48-0.67s0.12-.39.3-0.52c0.68-.49,1.34-1,2-1.47a0.74,0.74,0,0,0,.4-0.79,1.15,1.15,0,0,1,.81-1.41A2.15,2.15,0,0,1,36,16.44a2.8,2.8,0,0,0,2-.38,1.83,1.83,0,0,1,.81-0.12l1.83-.16a0.28,0.28,0,0,1,.36.32,2,2,0,0,0,.14,1.07,2.41,2.41,0,0,0,1,.32c0.5,0.17,1,.35,1.47.55,0.31,0.13.45,0.07,0.44-.28s0.14-.44.47-0.51a1.62,1.62,0,0,1,1.59.46,1.41,1.41,0,0,0,1.26.4,0.39,0.39,0,0,1,.5.35,24.73,24.73,0,0,1-4.38,22,0.9,0.9,0,0,0-.08.19Z" transform="translate(0 -0.18)"/><path class="cls-4" d="M47.23,16.07a1.83,1.83,0,0,1-1-1.87c-1,.17-0.68,1.11-1.09,1.65-0.44-.48-1.07-0.8-1-1.62a0.8,0.8,0,0,0-.25-0.53A3.79,3.79,0,0,0,43,12.91a4.77,4.77,0,0,0-1.18-.26,1.54,1.54,0,0,0,.66,1.24c0.39,0.19.76,0.43,1.1,0.63a2.18,2.18,0,0,0-.18.64,0.53,0.53,0,0,1-.44.63A0.79,0.79,0,0,1,42,15.57a2.39,2.39,0,0,1-.16-0.3,4.42,4.42,0,0,0,.66,0,1.07,1.07,0,0,0,.33-0.19,1.06,1.06,0,0,0-.2-0.28c-0.37-.27-0.77-0.51-1.13-0.78s-0.54-.48-0.84-0.76a1,1,0,0,0-.19.16,0.83,0.83,0,0,1-1,.3,0.47,0.47,0,0,0-.42.13c-0.44.6-.85,1.23-1.27,1.85a0.41,0.41,0,0,1-.19.19,3.79,3.79,0,0,1-2.32-.13,0.67,0.67,0,0,1-.3-0.44,2.16,2.16,0,0,1,0-1.5,0.59,0.59,0,0,1,.26-0.29,2.68,2.68,0,0,1,1.55-.14,3.11,3.11,0,0,0,.45.08c0.19,0,.37.06,0.4-0.2s0.14-.45-0.24-0.48a0.29,0.29,0,0,1-.18-0.22,2.72,2.72,0,0,1,.13-0.82,0.55,0.55,0,0,1,.43-0.23,1.47,1.47,0,0,0,1.42-.89,1.45,1.45,0,0,1,1.68-.68c0.87,0.07.9,0.05,0.7-.8L41.54,8.9l-0.48.15-0.5.2a3.25,3.25,0,0,0-.27-0.57,1.07,1.07,0,0,0-.44-0.37,0.56,0.56,0,0,1-.3-0.81,2,2,0,0,1,1.18-.72A0.39,0.39,0,0,1,41,6.9a24.79,24.79,0,0,1,6.16,8.88A2,2,0,0,1,47.23,16.07Z" transform="translate(0 -0.18)"/><path class="cls-5" d="M39.49,10.49a1,1,0,0,1-.94.67c-0.23,0-.47,0-0.7,0a1,1,0,0,1-.49-0.09,2.09,2.09,0,0,1,0-.73,0.72,0.72,0,0,1,.27-0.14,0.55,0.55,0,0,0,.27-0.2,0.48,0.48,0,0,0-.16-0.34c-0.18-.15-0.4-0.26-0.59-0.39a0.55,0.55,0,0,1,.09-0.95c0.52-.25.76-0.13,0.9,0.43A2.24,2.24,0,0,0,39.49,10.49Z" transform="translate(0 -0.18)"/><path class="cls-5" d="M35.85,10.92a0.73,0.73,0,0,1-.25-0.25A1.21,1.21,0,0,1,37,9.41c0.35,0.11.5,0.38,0.28,0.66A2.32,2.32,0,0,1,35.85,10.92Z" transform="translate(0 -0.18)"/><path class="cls-5" d="M23.72,12.5l0,0.06a7.42,7.42,0,0,1-.91.8,0.36,0.36,0,0,1-.53-0.28c-0.07-.34.23-0.25,0.42-0.29A0.52,0.52,0,0,0,23,12.68C23.21,12.32,23.47,12.43,23.72,12.5Z" transform="translate(0 -0.18)"/><path class="cls-5" d="M21.19,13.34l0.4-.44a0.81,0.81,0,0,1,.24.33c0,0.4-.32.21-0.51,0.26Z" transform="translate(0 -0.18)"/><path class="cls-6" d="M10.12,8.24s-4.64,3.31-5.49,7.43" transform="translate(0 -0.18)"/><circle class="cls-7" cx="11.37" cy="7.28" r="0.26"/></svg>