<?xml version="1.0" encoding="utf-8"?>
<!-- Generator: Adobe Illustrator 19.2.1, SVG Export Plug-In . SVG Version: 6.00 Build 0)  -->
<svg version="1.1" id="Calque_1" xmlns="http://www.w3.org/2000/svg" xmlns:xlink="http://www.w3.org/1999/xlink" x="0px" y="0px"
	 viewBox="0 0 50 33.9" style="enable-background:new 0 0 50 33.9;" xml:space="preserve">
<style type="text/css">
	.st0{fill:url(#SVGID_1_);}
	.st1{fill:#FFFFFF;}
	.st2{fill:#E2E0E0;}
	.st3{fill:none;stroke:#FFFFFF;stroke-width:0.7;stroke-linecap:round;stroke-linejoin:round;stroke-miterlimit:10;}
</style>
<title>youtube</title>
<g>
	
		<linearGradient id="SVGID_1_" gradientUnits="userSpaceOnUse" x1="25.0002" y1="35.6499" x2="25.0002" y2="2.4697" gradientTransform="matrix(1 0 0 -1 0 36)">
		<stop  offset="0" style="stop-color:#E22C26"/>
		<stop  offset="1" style="stop-color:#BF181E"/>
	</linearGradient>
	<path class="st0" d="M8.6,33.5c-4.6,0-8.3-3.7-8.3-8.3V8.6c0-4.6,3.7-8.3,8.3-8.3h32.7c4.6,0,8.3,3.7,8.3,8.3v16.6
		c0,4.6-3.7,8.3-8.3,8.3H8.6z"/>
	<path d="M41.4,0.7c4.4,0,7.9,3.6,7.9,7.9v16.6c0,4.4-3.6,7.9-7.9,7.9H8.6c-4.4,0-7.9-3.6-7.9-7.9V8.6c0-4.4,3.6-7.9,7.9-7.9H41.4
		 M41.4,0H8.6C3.9,0,0,3.9,0,8.6v16.6c0,4.8,3.9,8.6,8.6,8.6h32.7c4.8,0,8.6-3.9,8.6-8.6V8.6C50,3.9,46.1,0,41.4,0L41.4,0z"/>
</g>
<polygon class="st1" points="35.4,16 34.1,16.8 18.7,25.6 18.7,6.4 18.8,6.5 "/>
<polygon class="st2" points="35.4,16 34.1,16.8 18.8,6.5 "/>
<path class="st3" d="M19.2,1.9H7.9c0,0-4.6,0.2-5.2,4.9"/>
</svg>
