<svg xmlns="http://www.w3.org/2000/svg" xmlns:xlink="http://www.w3.org/1999/xlink" viewBox="0 0 494.53 445.16"><defs><style>.cls-1{fill:none;}.cls-2{isolation:isolate;}.cls-3{fill:#fff;}.cls-4{clip-path:url(#clip-path);}.cls-5{opacity:0.3;}.cls-6{fill:#6fbf99;}.cls-7{fill:#00aeb5;}.cls-10,.cls-8{fill:#b2225c;}.cls-9{fill:#fbfbfb;}.cls-10{mix-blend-mode:multiply;}</style><clipPath id="clip-path" transform="translate(0.25 -51.75)"><path class="cls-1" d="M473,256H369.78a135.18,135.18,0,1,0-233.62,0H21.2V411.1H58.13v40.3l194.64,44.49L447.4,451.4V411.1H473V256Z"/></clipPath></defs><title>Logo-3</title><g class="cls-2"><g id="Calque_2" data-name="Calque 2"><path class="cls-3" d="M57.63,451.79V411.6H20.7V255.5H135.29a135.61,135.61,0,0,1-18-67.57c0-74.82,60.87-135.68,135.68-135.68s135.68,60.87,135.68,135.68a135.62,135.62,0,0,1-18,67.57h102.9V411.6H447.9v40.2L252.76,496.4Z" transform="translate(0.25 -51.75)"/><path class="cls-3" d="M253,52.75A135.2,135.2,0,0,1,369.78,256H473V411.1H447.4v40.3L252.76,495.89,58.13,451.4V411.1H21.2V256h115A135.2,135.2,0,0,1,253,52.75m0-1A136.21,136.21,0,0,0,134.43,255H20.2V412.1H57.13v40.1l0.78,0.18,194.64,44.49,0.22,0.05,0.22-.05,194.64-44.49,0.78-.18V412.1H474V255H371.51A136.2,136.2,0,0,0,253,51.75h0Z" transform="translate(0.25 -51.75)"/><g class="cls-4"><g class="cls-5"><path class="cls-6" d="M60.35,434.18c0-37,28.53-59.66,63.47-59.66,27.5,0,43.41,15.22,50.67,30.09l-29.4,15c-3.29-7.09-10.89-14.35-21.27-14.35-16.78,0-28,12.8-28,28.88s11.24,28.88,28,28.88c6.57,0,14.35-2.42,18-5.19v-4.15H120.36V423.29h56.2V470.5c-12.8,14.18-30.09,23.35-52.75,23.35C88.88,493.85,60.35,471,60.35,434.18Z" transform="translate(0.25 -51.75)"/><path class="cls-6" d="M217.73,491.77V445.94l-43.23-69.52h39.26l21.44,38.91,21.1-38.91h39.26l-42.89,69.52v45.83H217.73Z" transform="translate(0.25 -51.75)"/><path class="cls-6" d="M403.81,491.77V422.42L378,491.77H362.48l-25.77-69.35v69.35H301.78V376.42H350l20.23,55.34,20.23-55.34h48.25V491.77H403.81Z" transform="translate(0.25 -51.75)"/></g></g><path class="cls-7" d="M253,58.75A129.2,129.2,0,0,1,364.6,253l-5.27,9H467V405.1H441.4v41.52L252.76,489.73,64.13,446.61V405.1H27.2V262H146.61l-5.27-9A129.19,129.19,0,0,1,253,58.75m0-6A135.2,135.2,0,0,0,136.16,256H21.2V411.1H58.13v40.3l194.64,44.49L447.4,451.4V411.1H473V256H369.78A135.2,135.2,0,0,0,253,52.75h0Z" transform="translate(0.25 -51.75)"/><path class="cls-3" d="M0.25,385.92V273.82H180.13a110.84,110.84,0,1,1,143.93,0H493.78v112.1H0.25Z" transform="translate(0.25 -51.75)"/><path class="cls-3" d="M252.09,79.19a110.33,110.33,0,0,1,70.59,195.13h170.6v111.1H0.75V274.32H181.49A110.33,110.33,0,0,1,252.09,79.19m0-1a111.33,111.33,0,0,0-73.31,195.13h-179v113.1H494.28V273.32H325.39A111.33,111.33,0,0,0,252.09,78.19h0Z" transform="translate(0.25 -51.75)"/><path class="cls-8" d="M362.43,189.52a109.87,109.87,0,0,1-23.2,67.69l-9.86,2.22-1.95-8.21s-18.29-13.1-24.92-27.3c0,0-39.29,26.63-68.17,7.78a202.73,202.73,0,0,1-29.83,2.46h0c-16.88,0-35.25-2.74-38.64-14.46,0,0,3.36-11,1.05-15.91,0,0,8.4-26.86,19.89-42.39s18.82-47.52,29-55.28,46.64-35.71,55.3-6.67a26.23,26.23,0,0,1,.88,3c2.71,11.52-7,10.78-8.6,10.58l-0.23,0s5.07,7-.79,9.76-8.45-4.7-8.45-4.7l-0.09.06,0,0c-1.17.88-10.39,7.65-18.07,7.57a11.34,11.34,0,0,1-2.42-.29s-9.18,4.83-8.58,21.24c0.06,1.4.17,2.88,0.39,4.45,0.23,1.83.59,3.76,1.07,5.84,2.61,11.18-1.17,19.44-6.08,25.12a38.53,38.53,0,0,1-7,6.27,43.23,43.23,0,0,1,7-2.91c2.49-.76,4.87-1.1,6.64-0.55,0,0,24-30.76,64.18-13.43a41.59,41.59,0,0,1,27.41-17.7l25.08-12.25,12,9.28A110,110,0,0,1,362.43,189.52Z" transform="translate(0.25 -51.75)"/><path class="cls-7" d="M252.5,85.6a104.34,104.34,0,0,1,82.4,168.35,104.76,104.76,0,0,1-15.65,16.18l-12.75,10.61H487.7v99.09H7.17V280.74H198.48l-12.72-10.61A104.34,104.34,0,0,1,252.5,85.6m0-6a110.34,110.34,0,0,0-70.59,195.14H1.17V385.82H493.7V274.74H323.09A110.32,110.32,0,0,0,252.5,79.6h0Z" transform="translate(0.25 -51.75)"/><polygon class="cls-6" points="52.05 251.94 47.56 248.95 47.56 246.6 62.3 246.6 71.48 297.44 80.24 246.6 91.99 246.6 101.17 297.44 108.65 252.58 103.52 249.38 103.31 246.6 120.39 246.6 107.79 311.96 95.41 311.96 86.01 262.84 76.61 311.96 64.01 311.96 52.05 251.94"/><path class="cls-6" d="M382.29,298.33v2.76l5.22,3.26v41a9.38,9.38,0,1,1-18.77,0V298.33H352.58v2.6l4.9,3.26s0.16,37.54.49,40,1.31,21.05,20.89,20.89,19.75-20.89,19.75-20.89V298.33H382.29Z" transform="translate(0.25 -51.75)"/><path class="cls-1" d="M368.74,345.4a9.38,9.38,0,1,0,18.77,0" transform="translate(0.25 -51.75)"/><polygon class="cls-6" points="416.87 311.46 416.87 308.7 421.78 305.94 421.78 255.62 407.76 255.62 407.76 246.57 447.18 246.57 447.18 255.86 432.8 255.86 432.8 311.46 416.87 311.46"/><path class="cls-6" d="M136.91,329.53c0-14.16,5-24.72,16.27-26a20.43,20.43,0,0,0-2.4-.14c-13,0-18.72,11-18.72,26.18s5.73,28.67,18.72,28.67a20.42,20.42,0,0,0,2.5-.16C141.95,356.5,136.91,343.73,136.91,329.53Z" transform="translate(0.25 -51.75)"/><path class="cls-6" d="M182.35,328.77c0-25.27-10.05-33.2-26.72-33.2a26.22,26.22,0,0,0-3.08.18c14.45,1.69,20.88,15.25,20.88,33.42s-6.46,34.62-21,36.59a26.2,26.2,0,0,0,3.21.2c1.28,0,2.51-.06,3.7-0.16V366H176.4v-2.25h-8.46C177.12,359.62,182.35,349.39,182.35,328.77Z" transform="translate(0.25 -51.75)"/><path class="cls-6" d="M302.1,329.53c0-14.16,5-24.72,16.27-26a20.43,20.43,0,0,0-2.4-.14c-13,0-18.72,11-18.72,26.18S303,358.2,316,358.2a20.42,20.42,0,0,0,2.5-.16C307.14,356.5,302.1,343.73,302.1,329.53Z" transform="translate(0.25 -51.75)"/><path class="cls-6" d="M347.54,328.77c0-25.27-10.05-33.2-26.72-33.2a26.22,26.22,0,0,0-3.08.18c14.45,1.69,20.88,15.25,20.88,33.42s-6.46,34.62-21,36.59a26.2,26.2,0,0,0,3.21.2c1.28,0,2.51-.06,3.7-0.16V366h17.07v-2.25h-8.46C342.31,359.62,347.54,349.39,347.54,328.77Z" transform="translate(0.25 -51.75)"/><path class="cls-6" d="M155.78,330.77c0-4.57-1.64-8.48-4-10.12a4.19,4.19,0,0,1,2.43-.82c3.53,0,6.39,4.9,6.39,10.94s-2.86,10.94-6.39,10.94a4.19,4.19,0,0,1-2.43-.82C154.14,339.26,155.78,335.34,155.78,330.77Z" transform="translate(0.25 -51.75)"/><path class="cls-6" d="M321.47,330.77c0-4.57-1.64-8.48-4-10.12a4.19,4.19,0,0,1,2.43-.82c3.53,0,6.39,4.9,6.39,10.94s-2.86,10.94-6.39,10.94a4.19,4.19,0,0,1-2.43-.82C319.83,339.26,321.47,335.34,321.47,330.77Z" transform="translate(0.25 -51.75)"/><path class="cls-6" d="M180.45,335.9H311.64a3,3,0,0,0,2.34,1.38c2.1,0,3.81-2.92,3.81-6.52s-1.7-6.52-3.81-6.52a2.84,2.84,0,0,0-2.11,1.1H180.45V335.9Z" transform="translate(0.25 -51.75)"/><path class="cls-6" d="M147.93,324.26a2.84,2.84,0,0,0-2.11,1.1H127.24a5.28,5.28,0,0,0,0,10.55h18.35a3,3,0,0,0,2.34,1.38c2.1,0,3.81-2.92,3.81-6.52S150,324.26,147.93,324.26Z" transform="translate(0.25 -51.75)"/><polygon class="cls-9" points="149.78 278.23 129.48 278.23 128.67 276.17 148.97 276.17 149.78 278.23"/><polygon class="cls-9" points="315.24 278.23 188.43 278.23 187.62 276.17 314.43 276.17 315.24 278.23"/><path class="cls-6" d="M222,335.31c23.56-28.49-4.25-37-4.25-37H188.5l0.47,2.61,4.92,3.48L194.08,357,189,360.32l-0.47,3.4h16.3V335.89l6.37,0.1,10.24,27.73H233Zm-8.15-7.45h-9.17v-20.6h9.24A11.24,11.24,0,0,1,213.84,327.85Z" transform="translate(0.25 -51.75)"/><polygon class="cls-6" points="242.82 311.96 242.82 308.75 247.54 305.82 247.88 252.37 242.82 249.51 242.82 246.57 258.85 246.57 259.55 273.82 275.97 246.57 288.2 246.57 269.19 276.26 289.87 311.96 276.79 311.96 261.6 284.11 258.92 284.21 259.01 311.96 242.82 311.96"/><path class="cls-6" d="M206.69,421.5a15.74,15.74,0,0,0,2-1.5,24.54,24.54,0,0,0,2.07-2.07,29.35,29.35,0,0,0,2-2.51,24.11,24.11,0,0,0,1.69-2.72,16.51,16.51,0,0,0,1.16-2.76,8.82,8.82,0,0,0,.43-2.65,6.31,6.31,0,0,0-.15-1.55,2.44,2.44,0,0,0-.42-0.91,1.4,1.4,0,0,0-.6-0.45,2.09,2.09,0,0,0-.71-0.12,6.31,6.31,0,0,0-3.38,1.25,24.83,24.83,0,0,0-4,3.41,54.5,54.5,0,0,0-4.27,5q-2.18,2.88-4.23,6.18t-3.85,6.8a75.31,75.31,0,0,0-3.16,6.9,53.76,53.76,0,0,0-2.14,6.52,23,23,0,0,0-.79,5.59,7,7,0,0,0,.14,1.53,2.57,2.57,0,0,0,.4,1,1.27,1.27,0,0,0,.67.48,3.15,3.15,0,0,0,.93.12,4.2,4.2,0,0,0,2.12-.76,20.05,20.05,0,0,0,2.6-2q1.38-1.21,2.79-2.69t2.65-2.93q1.24-1.44,2.23-2.66t1.52-1.94a8,8,0,0,0,.76.65l1.78,1.49,2,1.75q1,0.88,1.55,1.44l-1.89,2.14q-1.15,1.3-2.59,2.74t-3.08,2.9a31.67,31.67,0,0,1-3.38,2.62,20,20,0,0,1-3.5,1.89,9,9,0,0,1-3.44.73,5.49,5.49,0,0,1-2.57-.73,14.56,14.56,0,0,1-2.69-1.89,20.86,20.86,0,0,1-2.48-2.57,19.31,19.31,0,0,1-1.92-2.8,8.84,8.84,0,0,1-1.08-3.19,23.23,23.23,0,0,1-.15-2.32,24.65,24.65,0,0,1,.68-5.39,44.61,44.61,0,0,1,2-6.27,61.78,61.78,0,0,1,3.07-6.64,66.12,66.12,0,0,1,4-6.53,55.4,55.4,0,0,1,4.74-5.94,37.79,37.79,0,0,1,5.36-4.86,25.84,25.84,0,0,1,5.79-3.27,16.23,16.23,0,0,1,6.05-1.19,4.33,4.33,0,0,1,1.83.45,9.89,9.89,0,0,1,1.89,1.18,14.5,14.5,0,0,1,1.8,1.69,15.56,15.56,0,0,1,1.52,2,11,11,0,0,1,1,2,5.19,5.19,0,0,1,.39,1.84,13.16,13.16,0,0,1-.74,4.1,26.19,26.19,0,0,1-2,4.52,31.55,31.55,0,0,1-3,4.44,29.53,29.53,0,0,1-3.73,3.87Z" transform="translate(0.25 -51.75)"/><path class="cls-6" d="M222.11,447a3.23,3.23,0,0,0,1.35-.43,20.35,20.35,0,0,0,1.87-1.1q1-.67,2.14-1.47t2.09-1.58q1-.77,1.75-1.42l1.15-1q0.28,0.28.67,0.71l0.73,0.81q-0.68.68-1.7,1.66t-2.21,2q-1.19,1-2.48,2t-2.51,1.83a18.76,18.76,0,0,1-2.28,1.3,4.36,4.36,0,0,1-1.76.5,3.81,3.81,0,0,1-2-.68,12.27,12.27,0,0,1-2-1.59,13.24,13.24,0,0,1-1.58-1.84,4.39,4.39,0,0,1-.74-1.39,1.44,1.44,0,0,1-.06-0.45v-0.57a25.24,25.24,0,0,1,.39-3.92q0.39-2.37,1-5t1.5-5.26a42.49,42.49,0,0,1,1.78-4.63,64.41,64.41,0,0,1,3.89-7.31,56.43,56.43,0,0,1,3.92-5.56,36.5,36.5,0,0,1,3.68-4,33.31,33.31,0,0,1,3.17-2.6,15,15,0,0,1,2.38-1.42,4.17,4.17,0,0,1,1.35-.43,5.39,5.39,0,0,1,1.19.63,12.24,12.24,0,0,1,1.13.88,11.49,11.49,0,0,1,.93.91l0.59,0.67a1.29,1.29,0,0,1,.33.48,2,2,0,0,1,.08.6,8,8,0,0,1-.37,2,19.28,19.28,0,0,1-1.39,3.3,55.3,55.3,0,0,1-2.83,4.78q-1.81,2.79-4.72,6.5-1.36,1.74-2.88,3.53-1.3,1.55-3,3.38t-3.5,3.5a51.17,51.17,0,0,0-1.25,6,31.85,31.85,0,0,0-.36,4.06,3.07,3.07,0,0,0,.15,1.24A0.48,0.48,0,0,0,222.11,447Zm5-22.7q-0.53,1.18-1,2.29t-0.85,2.2q1-1.08,1.75-2.07l1.35-1.7q0.65-.84,1.18-1.58,2.17-3,3.75-5.57t2.6-4.47a28.75,28.75,0,0,0,1.5-3.22,6.19,6.19,0,0,0,.48-1.84,1.34,1.34,0,0,0,0-.23,0.15,0.15,0,0,0-.17-0.08,3.34,3.34,0,0,0-1.27.91,20.49,20.49,0,0,0-2.43,2.9,59.05,59.05,0,0,0-3.22,5.06A74.31,74.31,0,0,0,227.06,424.28Z" transform="translate(0.25 -51.75)"/><path class="cls-6" d="M234.4,450.85a3,3,0,0,1-1.18-.33,7.66,7.66,0,0,1-1.36-.81,5.8,5.8,0,0,1-1.11-1.07,1.86,1.86,0,0,1-.46-1.15q0.31-1.36.84-3.13t1.13-3.59q0.6-1.83,1.27-3.58t1.21-3.11q0.54-1.36.94-2.2a1.92,1.92,0,0,1,.53-0.84,3.14,3.14,0,0,1,.93.4,16.64,16.64,0,0,1,1.56,1,11.81,11.81,0,0,1,1.47,1.21,1.73,1.73,0,0,1,.65,1.1,1.12,1.12,0,0,1,0,.23c0,0.09-.05.21-0.09,0.36q-0.25.77-.63,1.83t-0.82,2.18l-0.87,2.26q-0.43,1.13-.77,2.12T237,445.46a4.39,4.39,0,0,0-.22,1.08,0.16,0.16,0,0,0,.19.19,2.34,2.34,0,0,0,1-.4,18.78,18.78,0,0,0,1.56-1.05q0.88-.65,1.84-1.42t1.84-1.53l1.59-1.38L246,440c0.19,0.19.41,0.42,0.67,0.71l0.73,0.81q-0.68.68-1.7,1.66t-2.21,2q-1.19,1-2.48,2t-2.49,1.83a17.89,17.89,0,0,1-2.26,1.3A4.4,4.4,0,0,1,234.4,450.85Zm12.26-29.23a6.27,6.27,0,0,1-.23.6L246,423.34q-0.28.64-.63,1.33t-0.7,1.28a8.11,8.11,0,0,1-.65,1,0.83,0.83,0,0,1-.5.39,4.46,4.46,0,0,1-1.35-.34,14.05,14.05,0,0,1-1.52-.7,10.41,10.41,0,0,1-1.24-.76,1.13,1.13,0,0,1-.51-0.53,5.29,5.29,0,0,1,.37-1.69,17.34,17.34,0,0,1,.87-2,13,13,0,0,1,1-1.69,1.43,1.43,0,0,1,.79-0.71,3.53,3.53,0,0,1,1.36.36,13.46,13.46,0,0,1,1.56.82,11.46,11.46,0,0,1,1.3.91A1.33,1.33,0,0,1,246.66,421.62Z" transform="translate(0.25 -51.75)"/><path class="cls-6" d="M248.3,451.44a2.91,2.91,0,0,1-1.27-.36,8.06,8.06,0,0,1-1.46-1,11.05,11.05,0,0,1-1.44-1.42A9.09,9.09,0,0,1,243,447a2.25,2.25,0,0,1-.25-0.77,8.22,8.22,0,0,1-.06-1.11,12.11,12.11,0,0,1,.54-3.55,15.31,15.31,0,0,1,1.5-3.39,16.94,16.94,0,0,1,2.31-3,16.29,16.29,0,0,1,2.93-2.43,14.5,14.5,0,0,1,3.38-1.61,11.69,11.69,0,0,1,3.65-.59,1.62,1.62,0,0,1,.76.29,7.66,7.66,0,0,1,1,.79q0.56,0.5,1.13,1.11a14.55,14.55,0,0,1,1,1.25,8.28,8.28,0,0,1,.76,1.24,2.5,2.5,0,0,1,.29,1.07,2.83,2.83,0,0,1-1,1.28,11,11,0,0,1-1.9,1.3,13.87,13.87,0,0,1-2.31,1,6.79,6.79,0,0,1-2.11.4c-0.35,0-.53-0.1-0.53-0.31a2.09,2.09,0,0,1,.46-1q0.46-.67,1-1.46t1-1.58a2.79,2.79,0,0,0,.46-1.35,0.75,0.75,0,0,0-.14-0.46,0.46,0.46,0,0,0-.39-0.19,2.27,2.27,0,0,0-1.42.62,9.1,9.1,0,0,0-1.49,1.64,18.12,18.12,0,0,0-1.42,2.34,23.43,23.43,0,0,0-1.19,2.71,21.73,21.73,0,0,0-.82,2.79,11.77,11.77,0,0,0-.31,2.54,1,1,0,0,0,.4.94,2.3,2.3,0,0,0,1.24.26,11.76,11.76,0,0,0,4-.7,19.89,19.89,0,0,0,3.72-1.8,28,28,0,0,0,3.39-2.46q1.61-1.36,3-2.72a5.53,5.53,0,0,0,.84.79,6,6,0,0,1,.74.67,51.14,51.14,0,0,1-4.07,3.82,29.86,29.86,0,0,1-4.54,3.16,24.6,24.6,0,0,1-5,2.14A18.82,18.82,0,0,1,248.3,451.44Z" transform="translate(0.25 -51.75)"/><path class="cls-6" d="M282.86,446.05a3,3,0,0,0,1.25-.37,17.1,17.1,0,0,0,1.66-.94q0.9-.57,1.84-1.28t1.8-1.39q0.85-.68,1.53-1.27l1.05-.9c0.19,0.19.41,0.42,0.67,0.71l0.73,0.81q-0.68.68-1.7,1.66t-2.21,2q-1.19,1-2.48,2t-2.51,1.83a18.86,18.86,0,0,1-2.28,1.3,4.36,4.36,0,0,1-1.76.5,4.88,4.88,0,0,1-2.18-.48A7,7,0,0,1,276.5,449a11.54,11.54,0,0,1-1.47-1.73q-0.68-1-1.27-2-0.53.68-1.07,1.5t-1,1.56q-0.46.74-.77,1.3t-0.4.68a0.7,0.7,0,0,1-.19.36,0.61,0.61,0,0,1-.4.11,2.34,2.34,0,0,1-1.1-.36,7.2,7.2,0,0,1-1.28-.94q-0.65-.59-1.28-1.28a11,11,0,0,1-1.1-1.41,1.7,1.7,0,0,1-.31-0.77,7.66,7.66,0,0,1-.06-1.05,24.6,24.6,0,0,1,.5-4.61,48.26,48.26,0,0,1,1.39-5.4q0.9-2.83,2.15-5.85t2.77-6q1.52-3,3.28-5.77t3.65-5.26a43.16,43.16,0,0,1,3.87-4.4,22.67,22.67,0,0,1,4-3.19,2.06,2.06,0,0,1,.57-0.25,2,2,0,0,1,.45-0.06,2.29,2.29,0,0,1,1.05.42,16.66,16.66,0,0,1,1.44,1q0.76,0.59,1.42,1.18a9.78,9.78,0,0,1,1,1,1.45,1.45,0,0,1,.19.81,13.09,13.09,0,0,1-1.36,5.09,45.29,45.29,0,0,1-3.84,6.72,88.1,88.1,0,0,1-6,7.79q-3.52,4.12-7.82,8.27-0.46,1.58-.9,3.14t-0.81,3.14a63,63,0,0,1,5.16-6.61,34,34,0,0,1,3.85-3.68,10.3,10.3,0,0,1,2.62-1.61,5.12,5.12,0,0,1,1.41-.36,1.56,1.56,0,0,1,.88.39,7.24,7.24,0,0,1,1,.9q0.46,0.51.84,1a7.41,7.41,0,0,1,.5.7,2.71,2.71,0,0,1-.65,1.25,20,20,0,0,1-1.89,2.18,37.43,37.43,0,0,1-2.86,2.62A29.2,29.2,0,0,1,279,442a24.74,24.74,0,0,0,1.7,2.23,10.69,10.69,0,0,0,1.21,1.21A3,3,0,0,0,282.86,446.05Zm-3.31-25q-0.93,1.86-1.9,4.12t-1.94,4.8q3.44-3.9,5.87-7.25a70.09,70.09,0,0,0,4-6.05,28.23,28.23,0,0,0,2.28-4.78,11.11,11.11,0,0,0,.71-3.47,1.51,1.51,0,0,0,0-.2,0.14,0.14,0,0,0-.17-0.11,2.4,2.4,0,0,0-1.21.87,22.15,22.15,0,0,0-2,2.54q-1.18,1.67-2.62,4.07T279.55,421.06Z" transform="translate(0.25 -51.75)"/><path class="cls-6" d="M313.23,441.53a54.42,54.42,0,0,1-5.37,4.68,32,32,0,0,1-4.81,3,20.45,20.45,0,0,1-4.38,1.64,17.68,17.68,0,0,1-4.07.5,3.67,3.67,0,0,1-1.86-.62,10.45,10.45,0,0,1-3.38-3.34,3.3,3.3,0,0,1-.59-1.64,14.87,14.87,0,0,1,.7-4.66,15.45,15.45,0,0,1,1.84-3.82,15.66,15.66,0,0,1,2.62-3,16.57,16.57,0,0,1,3.07-2.17,15,15,0,0,1,3.17-1.3,11.07,11.07,0,0,1,2.91-.43,3.72,3.72,0,0,1,1.9.56,8.13,8.13,0,0,1,1.72,1.36A7.94,7.94,0,0,1,308,434a3.32,3.32,0,0,1,.48,1.53,3.46,3.46,0,0,1-.88,2.15,12.37,12.37,0,0,1-2.49,2.24,34.3,34.3,0,0,1-3.87,2.34q-2.26,1.19-5,2.4a11.73,11.73,0,0,0-.09,1.46,1.62,1.62,0,0,0,.42,1.3,2.58,2.58,0,0,0,1.56.34,10.85,10.85,0,0,0,3.85-.68,18,18,0,0,0,3.48-1.76,25.78,25.78,0,0,0,3.22-2.48q1.55-1.39,3.07-2.82Zm-10.9-7.74a2.15,2.15,0,0,0-1.36.67,9.77,9.77,0,0,0-1.49,1.75,19.14,19.14,0,0,0-1.42,2.49,23.3,23.3,0,0,0-1.18,2.93q1.14-.74,2.24-1.58a16.41,16.41,0,0,0,2-1.75,9.11,9.11,0,0,0,1.39-1.87,4,4,0,0,0,.53-1.92,0.79,0.79,0,0,0-.17-0.5A0.61,0.61,0,0,0,302.34,433.79Z" transform="translate(0.25 -51.75)"/><path class="cls-6" d="M325.74,436.33q-0.4,1.21-1,2.76t-1.16,3q-0.56,1.49-.94,2.69a6.57,6.57,0,0,0-.39,1.73,0.16,0.16,0,0,0,.19.19,2.34,2.34,0,0,0,1-.4q0.68-.4,1.56-1.05t1.84-1.42q1-.77,1.84-1.53l1.59-1.38,1.08-.93c0.19,0.19.41,0.42,0.67,0.71l0.73,0.81q-0.68.68-1.7,1.66t-2.21,2q-1.19,1-2.48,2t-2.51,1.83a18.86,18.86,0,0,1-2.28,1.3,4.36,4.36,0,0,1-1.76.5,3,3,0,0,1-1.18-.33,7.61,7.61,0,0,1-1.36-.81,5.8,5.8,0,0,1-1.11-1.07,1.86,1.86,0,0,1-.46-1.15q0.46-2.07.93-3.62t0.87-2.65q0.4-1.1.71-1.78l0.46-1a7.38,7.38,0,0,1-.71-0.34l-0.68-.37q-0.5.53-1.1,1.11L315,440l-1.24,1.15-1.11,1-1.49-1.52,1.94-1.87q1.13-1.1,2.21-2.21-0.77-.46-1.39-0.88c-0.41-.28-0.76-0.53-1.05-0.76l-0.93-.68a0.4,0.4,0,0,1-.19-0.4,2.84,2.84,0,0,1,.26-1,14.07,14.07,0,0,1,.67-1.36q0.4-.73.87-1.49t0.9-1.38q0.43-.62.76-1a1.13,1.13,0,0,1,.42-0.39,2.05,2.05,0,0,1,.42.15l0.76,0.36a5.51,5.51,0,0,1,.74.45,1.42,1.42,0,0,1,.43.43c0,0.1,0,.32.06,0.65s0,0.73.06,1.21q1.21,0.62,2.48,1.41t2.32,1.5q1.24,0.81,2.35,1.64a1.1,1.1,0,0,1,.51.62A1.09,1.09,0,0,1,325.74,436.33Z" transform="translate(0.25 -51.75)"/><path class="cls-10" d="M263.37,113l-0.48-.24-9,5.27-0.09.06,0,0c-1.17.88-10.39,7.65-18.07,7.57l-2.23-.91s4.3-1.26,4.85-1.87-1.46-16.09-1.81-16.78c0,0,4.79,15.2,5.43,15.12s3.7-.88,4-1.52-1.07-17.45-1.45-18.23c0,0,5.23,15.59,5.93,15.7s3.58-1.65,4.05-2.39-2-17.89-2.17-18.81c3.95,9.9,6,16.66,6.95,16.42s3.14-1,3.4-1.88-3-17.07-3-17.07-0.06-.08,2,4.2c1.48,3.17,3.27,10.72,4.7,10.85s4.16-4.43,5.54-6.24a1.48,1.48,0,0,1,.19.14C274.69,113.93,265,113.2,263.37,113Z" transform="translate(0.25 -51.75)"/></g></g></svg>